<svg version="1.1" id="Layer_1" xmlns="http://www.w3.org/2000/svg" xmlns:xlink="http://www.w3.org/1999/xlink" x="0px" y="0px"
	 width="100%" viewBox="0 0 692 692" enable-background="new 0 0 692 692" xml:space="preserve">

<path fill="#A62569" opacity="1.000000" stroke="none" 
	d="
M372.655334,391.132935 
	C372.903107,390.774536 373.006622,390.447449 373.106781,390.308167 
	C376.308228,387.024811 377.812439,382.798798 380.699921,379.061493 
	C380.886505,378.739532 381.002625,378.429779 381.095703,378.293060 
	C382.240356,376.527252 384.015472,375.411743 384.784241,373.166290 
	C385.330475,372.465271 385.644745,372.015259 386.177551,371.395782 
	C386.865936,370.050629 387.374573,368.903564 388.768860,368.019775 
	C389.047760,367.536194 389.177063,367.327454 389.489746,367.025452 
	C390.867859,365.348419 392.492828,364.136597 393.702850,362.136536 
	C393.811279,361.814606 393.833954,361.877686 393.801910,361.867889 
	C395.809692,358.869415 398.909332,356.774200 400.892426,353.261963 
	C424.514099,326.147949 451.808197,304.538361 485.019592,291.031921 
	C501.776886,284.217010 519.112549,279.872131 537.368225,279.987244 
	C543.111023,280.023468 543.719177,280.544678 542.367188,285.941681 
	C535.850586,311.955902 524.057190,335.426392 508.136017,356.929688 
	C504.814880,361.415253 499.815002,359.310974 495.707367,360.651520 
	C492.287231,361.767700 488.518524,361.809937 484.907532,362.349976 
	C483.631348,362.540833 482.116730,363.473877 481.167786,362.233307 
	C479.995331,360.700623 481.489075,359.453766 482.334259,358.315491 
	C490.634186,347.137421 496.694794,334.774750 501.699158,321.851624 
	C502.767487,319.092743 505.415253,315.545227 503.785431,313.575073 
	C501.989502,311.404053 497.790283,312.740570 494.749268,313.198700 
	C479.654663,315.472687 465.306763,320.106934 451.951813,327.593811 
	C439.293243,334.690277 427.328247,342.776428 416.353088,352.818176 
	C415.598328,353.477203 414.864136,353.462463 414.241150,354.180481 
	C414.129730,354.488251 413.997894,354.673401 413.898987,354.729340 
	C413.595825,355.472687 412.929474,355.474701 412.279236,355.971863 
	C412.135559,356.230103 412.127106,356.145203 412.169556,356.140991 
	C411.844513,356.235535 411.549011,356.438904 411.227142,357.006897 
	C410.635162,357.775787 410.141724,358.284882 409.419312,358.931152 
	C408.631042,359.374390 408.518463,359.954224 408.038269,360.514618 
	C406.721161,361.586365 405.689087,362.626984 404.401611,363.848022 
	C403.026062,365.334808 401.120667,365.802185 400.267639,367.833710 
	C400.135345,368.132233 400.055359,368.091003 400.100220,368.093994 
	C399.824738,368.231018 399.556732,368.434052 399.201538,368.921387 
	C397.664978,370.687897 396.268005,372.239197 394.636078,373.991516 
	C393.955383,374.237610 393.587891,374.427155 393.265808,375.104706 
	C393.221069,375.426239 393.115662,375.662384 393.027039,375.756592 
	C392.782898,376.141296 392.590210,376.404633 392.177155,376.803986 
	C391.993927,376.967163 392.004730,377.011047 391.985840,376.998657 
	C390.852539,378.244659 389.558563,379.332642 388.373779,380.935638 
	C388.249359,381.229034 388.184662,381.194794 388.219879,381.184814 
	C387.840698,381.252716 387.516663,381.467133 387.210907,382.114014 
	C387.138916,382.410004 387.035980,382.641815 386.943542,382.728638 
	C386.509613,383.516663 385.936981,384.032135 385.227875,384.804932 
	C385.033875,385.016052 385.021393,385.019684 385.019775,385.025879 
	C384.163025,385.654480 383.831757,386.626221 383.126282,387.689941 
	C382.885773,387.871124 382.931061,387.941589 382.896790,387.917450 
	C381.919037,389.316833 380.491974,390.309692 379.400909,391.985718 
	C379.312286,392.290680 379.252411,392.224274 379.295837,392.234894 
	C377.922302,392.979614 377.509888,394.553802 376.370056,395.927307 
	C376.234009,396.221130 376.200775,396.166443 376.232391,396.161591 
	C375.862274,396.244049 375.529358,396.442261 375.358337,397.058716 
	C375.440063,397.347870 375.474182,397.443878 375.427094,397.463318 
	C373.939819,397.978363 373.669067,399.447571 372.826935,400.425140 
	C372.101501,401.267242 370.870331,402.286133 369.482513,401.118927 
	C368.412445,400.218964 368.426819,399.165375 369.114258,398.058197 
	C370.411743,395.968445 371.607147,393.829468 372.655334,391.132935 
z"/>
<path fill="#8E2655" opacity="1.000000" stroke="none" 
	d="
M323.224548,408.226440 
	C313.905273,378.246857 309.537323,347.784637 308.124573,316.389465 
	C308.882141,312.547241 308.361877,309.121582 308.289398,305.356445 
	C309.560974,265.724548 318.053528,228.596497 341.045654,195.797943 
	C346.234955,188.395325 346.329529,188.294647 351.618652,195.820435 
	C365.871613,216.100647 375.513947,238.439728 381.633209,262.390961 
	C382.700073,266.566925 382.208069,270.112457 379.537201,273.642456 
	C377.037598,276.946075 375.129456,280.695068 372.924744,284.225342 
	C372.318115,285.196655 371.695129,286.504211 370.378967,286.307709 
	C368.959137,286.095703 369.074127,284.593567 368.800171,283.487946 
	C364.887421,267.698273 358.566101,252.908813 350.268524,238.943420 
	C347.313416,233.969803 346.993591,233.970367 343.887268,238.824997 
	C330.196960,260.220428 323.616364,283.938873 321.277954,308.963623 
	C319.507721,327.908417 319.583252,346.893738 321.296021,365.844452 
	C321.879120,372.296112 323.007904,378.698486 323.939941,385.560059 
	C324.132385,386.173767 324.272278,386.350739 324.228149,386.811676 
	C324.283539,388.168854 324.522858,389.242035 324.786621,390.644287 
	C324.742157,391.173920 324.673248,391.374481 324.800110,391.825867 
	C325.112396,392.962494 325.228912,393.848389 325.315308,395.068726 
	C325.966461,400.661591 327.519135,405.739929 328.510590,410.936127 
	C328.933960,413.155060 329.612915,415.262970 326.016113,415.905518 
	C325.551025,415.863342 325.378601,415.642853 325.361969,415.503906 
	C325.232910,412.936127 323.661987,410.916443 323.224548,408.226440 
z"/>
<path fill="#832952" opacity="1.000000" stroke="none" 
	d="
M262.845581,463.196045 
	C248.512741,462.540619 235.130280,459.031921 222.028549,454.744873 
	C179.672485,440.885529 142.320618,418.903046 112.129570,385.625824 
	C109.558853,382.792267 107.108482,379.849487 104.534889,377.018646 
	C101.840698,374.055237 101.726585,372.021637 106.128563,370.702728 
	C115.070595,368.023590 124.140602,366.032654 133.413040,364.993713 
	C146.345551,363.544678 159.320740,363.465179 172.305130,363.964935 
	C174.955856,364.066925 177.630692,364.814575 180.236374,364.590332 
	C190.618149,363.696747 195.179794,370.976624 199.890869,378.152527 
	C200.431335,378.975769 201.210892,379.771790 200.644516,380.846832 
	C200.057297,381.961334 198.945847,381.682312 197.987701,381.594543 
	C182.758667,380.199341 167.783615,382.163239 152.876373,384.997589 
	C146.889282,386.135925 146.590378,386.879486 150.615189,391.702393 
	C170.498489,415.528595 194.781570,433.373352 223.356186,445.521423 
	C237.504608,451.536407 252.168793,455.624115 267.549805,458.762146 
	C269.610626,459.304779 271.475159,459.206024 273.215271,460.692657 
	C273.597534,461.195526 273.674255,461.451141 273.634827,462.094574 
	C271.063202,464.490692 268.241394,462.222626 265.297424,463.288147 
	C264.342041,463.503082 263.790009,463.468109 262.845581,463.196045 
z"/>
<path fill="#842750" opacity="1.000000" stroke="none" 
	d="
M289.797577,390.815063 
	C290.026764,391.044067 290.131653,391.237183 290.074158,391.330841 
	C290.105499,391.872986 290.311737,392.261169 290.902832,392.777771 
	C291.460175,393.373505 291.733551,393.788971 292.063751,394.449554 
	C292.760315,396.865723 294.397583,398.484436 295.512329,400.771698 
	C297.430450,403.791168 299.167511,406.531647 301.025757,409.594971 
	C301.248260,410.419586 301.235748,410.918488 300.869659,411.706726 
	C299.500031,412.572479 298.328003,412.980621 296.698975,412.739197 
	C295.954315,412.254059 295.672455,411.850647 295.467957,410.985443 
	C295.135834,410.548676 295.039459,410.379089 295.295532,410.091370 
	C295.075012,409.897186 294.714661,409.672150 294.118408,409.222229 
	C280.688599,391.720184 270.336151,372.753174 261.137482,353.116760 
	C250.929291,331.325378 243.019562,308.735443 239.241104,284.932739 
	C235.918610,264.002441 235.386780,242.949997 238.880005,221.907211 
	C239.593323,217.610214 241.162704,216.802383 245.141846,218.611664 
	C269.058716,229.486435 288.777344,245.312714 303.440796,267.253479 
	C304.818573,269.315002 305.349701,271.373962 304.875732,273.845978 
	C303.967285,278.583954 303.251648,283.358887 302.316406,288.523621 
	C301.266022,290.700195 300.159210,291.950531 297.775543,290.199341 
	C288.301300,277.353973 278.120850,265.840485 264.103241,258.334503 
	C258.087616,255.113327 257.509460,255.268997 257.405396,262.090424 
	C257.014191,287.729340 261.192749,312.728546 268.147217,337.326538 
	C268.552460,338.759918 268.843445,340.225616 269.109985,342.056763 
	C269.118256,342.873413 269.307373,343.260590 269.829956,343.825226 
	C270.073730,344.045197 270.182037,344.252625 270.163452,344.368164 
	C270.433807,345.841766 271.070312,347.075043 271.686829,348.680542 
	C271.833832,348.992828 271.917877,349.106293 271.899109,349.174377 
	C272.921844,349.784882 272.227814,350.777130 272.650024,351.794098 
	C272.827850,352.062042 272.975494,352.491272 272.993896,352.717468 
	C273.427399,353.382019 273.493927,353.946198 273.712982,354.752502 
	C274.049774,355.392822 274.249542,355.785492 274.537048,356.497223 
	C274.578674,357.075317 274.532562,357.334351 274.210052,357.873199 
	C269.357941,359.519562 268.433197,355.941498 267.539154,353.033051 
	C263.918854,341.255981 260.092957,329.522186 257.694550,317.411621 
	C254.129196,299.408691 251.714279,281.284363 252.498535,262.860992 
	C252.533936,262.029358 252.492172,261.194519 252.523956,260.362213 
	C252.883865,250.936554 257.793732,248.360413 266.002045,252.932571 
	C276.324249,258.682220 284.914459,266.453430 293.002075,274.909363 
	C294.158325,276.118225 295.217804,278.583588 297.311859,277.376678 
	C299.279144,276.242889 298.676239,273.795502 298.323761,271.854828 
	C297.709595,268.473267 295.711182,265.765106 293.672363,263.115967 
	C282.954102,249.188995 269.452423,238.471893 254.616409,229.298767 
	C253.907822,228.860641 253.161102,228.488739 252.414413,228.118530 
	C245.110306,224.497223 243.415604,225.827942 242.390167,233.981918 
	C240.201141,251.388138 241.740265,268.608459 244.772247,285.668701 
	C248.987152,309.385010 257.155304,331.889282 267.193665,353.758636 
	C272.322388,364.931946 278.228607,375.723389 283.363495,387.270569 
	C285.046021,388.806793 285.420502,390.801636 286.649170,392.219177 
	C285.493195,390.754242 285.002655,388.859436 283.373169,387.245422 
	C281.691193,383.497131 280.166199,380.105530 278.340851,376.838928 
	C277.671570,375.641205 276.381439,374.235596 278.098816,372.353058 
	C279.127625,371.935699 279.721832,372.036346 280.617798,372.709015 
	C280.962189,373.025513 281.076111,373.225006 281.052246,373.337341 
	C281.108612,373.859894 281.283783,374.226074 281.735779,374.793945 
	C283.000122,377.240784 284.069275,379.448151 285.156311,381.976013 
	C285.219727,383.230743 285.931641,383.802948 286.565155,384.782532 
	C287.134460,385.675110 287.519501,386.302979 287.973297,387.200867 
	C288.128967,387.883545 288.299957,388.256500 288.795227,388.797913 
	C289.022797,389.012085 289.118011,389.221741 289.070801,389.326721 
	C289.112396,389.860321 289.293976,390.245087 289.797577,390.815063 
z"/>
<path fill="#732A4A" opacity="1.000000" stroke="none" 
	d="
M328.813385,450.536438 
	C325.841675,452.576508 322.749908,451.904114 319.640289,450.797363 
	C288.436096,439.691467 259.979706,423.839508 235.091171,401.836029 
	C231.728653,398.863312 228.484726,395.756409 225.073410,392.057190 
	C227.518845,388.575775 229.813263,390.259949 231.684509,392.113708 
	C240.683929,401.028809 250.537155,408.807312 260.913818,416.096771 
	C267.896362,421.001892 274.678406,426.172424 280.965393,429.643158 
	C269.984375,424.525818 260.214783,415.328217 249.896545,407.001770 
	C242.166138,400.763519 235.806610,392.949371 229.232895,385.436218 
	C213.641754,367.616974 201.396545,347.763062 192.208450,325.989044 
	C190.522552,321.993805 189.185593,317.909363 189.512131,313.414551 
	C189.750610,310.132172 191.281281,308.678040 194.523071,308.518402 
	C201.935638,308.153473 209.115051,309.602020 216.236664,311.287689 
	C221.041687,312.424988 226.028473,312.833130 230.508087,315.422607 
	C233.192871,316.974548 234.606186,315.434845 234.068924,312.423279 
	C233.504044,309.256927 231.517609,307.121887 228.930756,305.369598 
	C219.613876,299.058563 209.415817,294.553192 198.705536,291.380310 
	C188.518951,288.362518 178.071396,286.322784 167.511673,284.946899 
	C160.040359,283.973419 157.922791,286.212891 160.487442,293.193604 
	C164.912827,305.239044 170.618637,316.667816 177.323532,327.647491 
	C181.317352,334.187622 185.753860,340.412048 189.885971,346.846924 
	C190.954834,348.511414 191.501266,350.082092 190.347794,352.250610 
	C189.990982,352.726227 189.799484,352.875885 189.246063,353.069550 
	C173.109329,333.243439 160.926743,311.415680 153.318665,287.162811 
	C151.047409,279.922516 151.484390,279.515747 159.030930,279.738647 
	C184.656540,280.495514 208.587311,287.103760 230.664963,300.338074 
	C235.106430,303.000458 237.954468,306.309418 239.084473,311.398834 
	C239.983582,315.448334 241.486038,319.362762 242.691650,323.345978 
	C243.066284,324.583771 243.845535,326.052032 242.478210,326.989227 
	C241.382614,327.740234 240.245667,326.716370 239.286423,326.131958 
	C230.093307,320.530884 220.299423,316.457001 209.664719,314.611145 
	C205.739426,313.929840 201.749847,313.625092 197.795837,313.101318 
	C193.968719,312.594299 192.605179,313.458923 194.211746,317.672150 
	C202.534836,339.499664 214.185135,359.326385 228.843887,377.501343 
	C254.237106,408.985626 285.835999,432.246002 322.478485,448.934143 
	C323.677277,449.480072 324.980713,449.796234 326.887390,450.090698 
	C327.909760,449.847748 328.270569,449.872589 328.813385,450.536438 
z"/>
<path fill="#792E4F" opacity="1.000000" stroke="none" 
	d="
M264.060638,494.216980 
	C270.990143,492.369812 277.509216,490.610382 284.779785,488.648163 
	C283.809296,491.350037 282.004425,491.597076 280.468872,492.262665 
	C253.556335,503.927704 225.286591,507.683624 196.177505,507.365295 
	C162.103226,506.992615 129.335129,501.201538 98.712944,485.617584 
	C94.419624,483.432648 90.262848,481.006470 86.261589,478.273163 
	C82.600502,475.772217 82.518997,473.917694 86.069855,471.205627 
	C96.971970,462.878906 108.798866,456.124664 121.026909,450.007812 
	C131.760727,444.638397 142.850815,440.137817 154.158829,436.126404 
	C157.682098,434.876556 160.833527,434.858887 164.217712,436.562836 
	C168.820602,438.880341 173.607544,440.830109 178.282928,443.007690 
	C179.266479,443.465729 180.853210,443.618958 180.762039,445.071716 
	C180.675964,446.443207 179.133118,446.576935 178.113525,446.981689 
	C164.329971,452.453278 150.816574,458.479034 138.266495,466.460602 
	C135.508469,468.214661 130.862442,469.395538 130.858658,472.376495 
	C130.855209,475.096558 135.638458,475.815979 138.413239,477.146881 
	C170.209686,492.397675 203.690796,499.686951 238.987045,497.759888 
	C247.267456,497.307831 255.544922,496.280701 264.060638,494.216980 
z"/>
<path fill="#812D52" opacity="1.000000" stroke="none" 
	d="
M586.174683,457.344513 
	C594.620728,460.894562 601.825317,466.012512 608.926880,471.249268 
	C612.795654,474.102081 612.681641,475.520111 608.419067,478.329468 
	C591.375671,489.562225 572.565308,496.550690 552.764954,501.031494 
	C516.877441,509.152863 480.804016,509.462158 444.688019,502.921021 
	C432.726135,500.754547 421.076080,497.184692 409.941010,492.144714 
	C408.427734,491.459778 406.882568,490.867767 405.725525,489.436371 
	C407.142090,488.134705 408.565918,489.034943 409.853363,489.447052 
	C431.175140,496.272156 453.076538,499.046326 475.354370,497.813660 
	C505.498291,496.145782 534.028076,488.125732 560.914368,474.354980 
	C562.482056,473.552063 564.778198,472.832245 561.990356,470.317505 
	C562.075867,469.421997 562.520264,468.947205 563.608398,468.481201 
	C566.535461,467.415771 568.480530,468.070679 569.553406,470.461700 
	C571.072632,473.847565 568.124207,475.305145 566.008423,477.557800 
	C565.102234,478.189697 564.568726,478.512665 563.636108,479.034119 
	C562.985413,479.379791 562.726562,479.514862 562.084900,479.848755 
	C561.450867,480.179077 561.199524,480.310547 560.573669,480.634888 
	C538.917786,492.652313 515.589355,498.216248 491.894196,501.904114 
	C483.121124,503.269562 473.790283,503.458588 464.767944,501.659454 
	C481.963531,503.682465 533.583740,502.700287 569.595215,490.554962 
	C570.462097,490.248077 570.952148,490.072540 571.795166,489.764038 
	C577.006470,487.471375 582.357666,486.544312 587.264954,483.553894 
	C588.419250,482.969604 589.298462,482.649170 590.510010,482.222656 
	C595.001343,480.673279 598.986023,478.974762 601.502502,474.743469 
	C601.557678,474.486359 601.570312,473.999054 601.152344,473.156067 
	C600.473572,472.052277 600.196777,471.809479 599.642700,471.402649 
	C594.064453,467.984619 588.334595,465.298248 584.549683,459.671509 
	C584.617920,459.038818 584.668030,458.787048 584.933350,458.212952 
	C585.369812,457.755615 585.591125,457.620605 586.174683,457.344513 
z"/>
<path fill="#832952" opacity="1.000000" stroke="none" 
	d="
M501.284698,380.804810 
	C500.043915,381.111145 499.112030,381.176910 497.834503,381.175537 
	C491.955750,381.891937 486.296814,381.206970 480.402283,382.713287 
	C478.752106,383.019623 477.510315,383.150818 475.908234,383.178589 
	C474.544952,383.444489 473.506592,383.556152 472.052856,383.505920 
	C469.666199,384.086945 467.678619,384.700409 465.266632,384.835815 
	C464.970764,385.089630 465.016510,385.013336 465.054626,385.036255 
	C462.389008,385.831024 459.549652,386.003845 456.472443,386.900696 
	C454.012390,383.563385 454.444763,382.794220 458.697784,381.485199 
	C467.509277,378.773163 476.611145,377.424316 485.716736,376.768250 
	C505.005371,375.378448 524.268250,376.025421 543.361572,379.486847 
	C546.003418,379.965790 548.517761,380.852570 550.864685,382.154846 
	C554.669983,384.266296 555.396484,387.083618 553.020142,390.831909 
	C550.865723,394.230133 548.027100,397.061584 545.190613,399.886200 
	C540.114197,404.941315 535.050415,410.009277 529.993164,415.083344 
	C528.768799,416.311798 526.821350,417.618988 528.291138,419.696655 
	C529.509155,421.418365 531.564575,421.217194 533.352783,420.687927 
	C537.255920,419.532745 540.607971,417.213257 543.667480,414.700531 
	C554.849243,405.517059 566.411316,396.732819 576.041870,385.816833 
	C578.407593,383.135376 582.653931,380.620270 581.654724,376.956818 
	C580.550720,372.909302 575.514465,372.965790 571.864868,372.329102 
	C560.538086,370.353088 549.083435,369.775421 537.603882,369.093719 
	C525.550476,368.377930 513.694763,369.243073 501.772461,370.388916 
	C499.409302,370.615997 496.725525,371.238190 494.481812,368.744873 
	C494.260071,368.133057 494.246185,367.863098 494.436340,367.238556 
	C498.114502,365.833344 501.666382,365.358734 505.644440,365.218018 
	C510.868042,363.513916 515.917908,363.852203 520.888245,363.742004 
	C543.580261,363.238800 566.179871,363.879425 588.103577,370.757141 
	C594.219849,372.675873 594.392883,373.504395 590.225891,378.289185 
	C576.516663,394.031067 561.908386,408.811310 544.598145,420.666077 
	C541.596375,422.721832 538.338013,424.399292 535.278137,426.375244 
	C533.380615,427.600555 531.394043,427.273987 529.521423,426.802429 
	C525.534241,425.798370 521.618469,424.510895 517.356995,423.134338 
	C516.113586,422.012756 514.675232,421.309723 515.853882,419.323914 
	C525.343079,411.289459 534.724121,403.632568 542.793945,394.546112 
	C544.746399,392.347717 548.302429,390.319427 547.474609,387.404663 
	C546.694031,384.656189 542.654541,385.219421 539.987183,384.688507 
	C534.942444,383.684479 529.835632,382.992310 524.370483,382.057922 
	C521.671082,381.005859 519.252991,381.716278 516.531860,381.512024 
	C514.377319,381.417023 512.583252,381.313629 510.411835,381.131348 
	C507.276459,379.928925 504.408661,380.702942 501.284698,380.804810 
z"/>
<path fill="#862954" opacity="1.000000" stroke="none" 
	d="
M405.672241,433.228668 
	C419.977509,429.175507 434.210724,427.028809 448.674072,425.789215 
	C468.045807,424.128876 487.237732,424.923920 506.385010,427.986176 
	C507.694183,428.195557 508.980408,428.548340 510.651489,428.956360 
	C512.628845,430.145203 515.339111,429.245514 515.940430,432.319641 
	C514.092041,434.979340 511.619659,434.658905 509.405792,434.173492 
	C488.235199,429.531555 466.777954,429.976135 445.367340,430.947571 
	C437.400482,431.309052 429.347778,431.780273 423.625671,432.994141 
	C430.355988,432.308411 439.275482,431.368591 448.253387,431.062805 
	C466.412140,430.444305 484.226349,432.599884 501.713654,437.444336 
	C519.292603,442.314209 535.815430,449.837982 552.062744,457.970367 
	C554.477417,459.179016 557.932495,460.121765 557.354248,464.549408 
	C556.928589,465.493439 556.479858,465.825592 555.448486,465.937103 
	C539.601624,458.047180 524.215820,450.147430 507.554657,445.110596 
	C476.306824,435.664001 444.559814,433.527496 412.335846,438.519043 
	C403.809326,439.839844 395.344299,441.557831 386.433136,443.087158 
	C384.743683,442.746277 382.701233,443.656525 382.565918,441.431824 
	C382.468781,439.834656 384.268524,439.560455 385.337555,439.067322 
	C387.558716,438.042694 390.075409,437.977631 392.725708,437.103455 
	C393.006165,436.801758 392.951996,436.916931 392.894409,436.889832 
	C397.150269,436.240265 401.074615,434.193390 405.672241,433.228668 
z"/>
<path fill="#732A4A" opacity="1.000000" stroke="none" 
	d="
M341.298859,423.391785 
	C343.292664,393.222900 347.259155,363.681519 356.625854,335.065277 
	C365.614685,307.603455 378.442383,282.215576 396.696686,259.700256 
	C397.739685,258.413818 398.973450,257.281982 400.383728,255.884583 
	C400.908966,255.719971 401.168915,255.748962 401.737976,256.015930 
	C402.152924,256.489227 402.258698,256.724518 402.421967,257.340210 
	C401.261444,263.122192 397.442566,267.114288 394.255127,271.174347 
	C383.971405,284.273376 376.513428,298.829315 369.886139,313.981293 
	C363.103363,329.488770 358.233002,345.624756 353.531372,361.805786 
	C351.494598,368.815369 350.020905,376.046570 349.049316,383.341492 
	C352.025208,363.371399 358.024719,344.320984 367.117218,326.337128 
	C374.623993,311.489594 382.667114,296.905701 393.858032,284.388916 
	C395.263306,282.817108 396.473907,280.177460 399.775299,281.817902 
	C400.162689,282.320862 400.280823,282.548767 400.487671,283.151367 
	C384.850311,302.525085 372.327393,323.403564 363.700623,346.550995 
	C352.832458,375.712463 346.296570,405.859894 343.234192,436.796906 
	C342.932007,439.850037 342.366364,442.877075 340.975586,445.785645 
	C340.975586,440.456299 340.975586,435.126923 341.028961,429.372162 
	C341.929260,427.245209 341.342346,425.441742 341.298859,423.391785 
z"/>
<path fill="#812D52" opacity="1.000000" stroke="none" 
	d="
M455.858704,385.722778 
	C458.799530,385.700195 461.522705,385.375580 464.669312,385.055054 
	C453.105225,388.890289 440.892609,391.942596 429.206940,396.807556 
	C410.188049,404.725525 393.010162,415.620178 376.055115,427.968628 
	C375.400146,428.319794 375.257843,428.535736 374.889313,429.066833 
	C373.283173,429.834869 371.867249,430.557007 370.813538,428.314148 
	C389.583038,409.718323 410.989441,395.635864 434.587646,384.821533 
	C449.887909,377.809906 465.758026,372.476624 482.630219,368.892029 
	C483.648010,371.866455 482.018402,373.454346 479.522278,374.473602 
	C477.365479,375.354309 475.166565,376.109528 472.498535,376.622223 
	C471.894043,376.783112 471.656982,376.851654 471.074158,377.032135 
	C469.196960,377.688477 467.692566,378.324860 465.733643,378.587372 
	C465.196991,378.705170 464.984833,378.754822 464.459320,378.884705 
	C463.526855,379.125031 462.913940,379.307983 461.989014,379.552948 
	C461.270660,379.757080 460.860382,379.883972 460.142029,380.131134 
	C459.408600,380.407349 458.987152,380.574524 458.241425,380.886932 
	C450.085449,384.792938 441.581329,386.765991 433.660461,390.436310 
	C428.327362,392.907593 422.985870,395.461670 418.203491,397.500427 
	C426.819031,392.908936 436.515991,389.023102 446.311218,385.429718 
	C449.197662,384.370819 452.554688,381.727234 455.858704,385.722778 
z"/>
<path fill="#7D244B" opacity="1.000000" stroke="none" 
	d="
M455.836060,248.607880 
	C456.206421,252.402588 456.302307,255.841965 456.307129,259.665375 
	C454.743286,262.675140 455.833923,265.514435 455.661926,268.602081 
	C455.407654,278.133850 453.758575,287.129456 452.166718,296.137451 
	C451.639221,299.122498 450.240723,301.299377 447.632690,302.912018 
	C444.099945,305.096527 440.730408,307.543610 437.260651,309.832214 
	C436.077148,310.612823 435.080017,312.410950 433.442505,311.531189 
	C431.740997,310.617004 432.658905,308.703217 432.947418,307.431763 
	C436.141083,293.357330 435.940826,279.074036 435.800140,264.788330 
	C435.793610,264.122925 435.806641,263.457336 435.797913,262.791962 
	C435.709839,256.074036 434.972870,255.672943 429.076874,259.119019 
	C428.646973,259.370300 428.192322,259.579254 427.403625,259.914246 
	C426.571259,260.374573 426.027588,260.542236 424.997070,260.480530 
	C422.414825,258.969330 422.692169,257.381134 424.646118,256.141693 
	C427.628021,254.250198 430.963135,252.862869 434.484131,252.922562 
	C438.198334,252.985535 440.275604,255.579926 440.335052,259.134460 
	C440.504730,269.273560 440.885651,279.421722 440.125763,289.556122 
	C440.063782,290.382599 439.803497,291.201721 439.808563,292.028564 
	C439.823151,294.406769 438.589691,297.805420 441.662506,298.523285 
	C445.128113,299.332977 446.402832,295.895905 447.092529,293.206512 
	C449.913666,282.205780 450.910034,270.927368 451.437195,259.629120 
	C451.762573,252.655472 451.437744,245.655182 451.539368,238.668365 
	C451.569763,236.578873 451.056000,234.283554 453.345459,232.427429 
	C454.827240,232.273285 455.258331,232.973251 455.486633,234.345978 
	C455.539948,239.278915 455.421570,243.766342 455.836060,248.607880 
z"/>
<path fill="#6F2B44" opacity="1.000000" stroke="none" 
	d="
M372.630981,390.978088 
	C373.281647,393.663849 371.019470,395.843842 370.669586,398.594879 
	C372.426605,399.332397 373.318176,397.393402 375.071747,397.495514 
	C368.565643,408.694580 361.033966,419.468567 354.952362,431.128998 
	C352.518097,435.796326 349.901184,440.368347 347.007904,445.638519 
	C346.435974,438.784851 360.478119,409.208313 372.630981,390.978088 
z"/>
<path fill="#732A4A" opacity="1.000000" stroke="none" 
	d="
M295.416504,410.916748 
	C295.761566,410.926666 296.105194,411.240753 296.695007,411.800598 
	C297.618866,410.907928 298.674103,411.342346 299.845245,411.177063 
	C300.291229,410.720490 300.530548,410.485718 300.958374,410.084381 
	C309.522552,421.517853 317.763916,433.218353 327.012451,444.582886 
	C327.214874,445.455811 327.011139,445.923645 326.161438,446.337952 
	C314.004059,436.084961 304.176331,424.113068 295.416504,410.916748 
z"/>
<path fill="#6F2B44" opacity="1.000000" stroke="none" 
	d="
M325.600952,416.212494 
	C327.486176,413.901001 327.596252,411.574982 327.207550,408.984802 
	C326.573547,404.760223 325.010406,400.681519 325.242340,395.866455 
	C329.468201,412.315002 333.651215,429.226776 337.834259,446.138580 
	C337.293793,446.298004 336.753326,446.457397 336.212891,446.616821 
	C332.692200,436.598419 329.171539,426.580048 325.600952,416.212494 
z"/>
<path fill="#792E4F" opacity="1.000000" stroke="none" 
	d="
M262.835052,463.276978 
	C263.026672,463.041748 263.607300,463.010773 264.622437,462.961121 
	C270.581635,462.544006 276.027679,461.489777 281.657806,462.791840 
	C286.382477,463.884521 291.254517,462.020844 294.878937,462.425842 
	C288.553986,463.032654 281.030426,463.278870 273.343018,461.298584 
	C273.098389,461.026886 272.970856,460.791351 272.903320,460.675690 
	C272.749420,460.328491 272.663025,460.096924 272.831543,459.596191 
	C274.473846,459.494720 275.861176,459.662384 277.656006,459.930115 
	C278.195740,459.882385 278.328064,459.734619 278.623962,459.835327 
	C288.053192,460.152039 297.291840,461.571442 307.002411,460.729065 
	C308.928375,460.709869 310.730469,459.559174 311.229980,462.417969 
	C295.084503,465.409698 279.174286,465.929657 262.835052,463.276978 
z"/>
<path fill="#6F2B44" opacity="1.000000" stroke="none" 
	d="
M370.562805,427.936462 
	C371.860718,428.213318 372.868256,428.661194 374.269440,429.245514 
	C367.631622,435.840118 360.600128,442.298279 353.568634,448.756439 
	C357.216003,440.218109 363.813934,434.220917 370.562805,427.936462 
z"/>
<path fill="#732A4A" opacity="1.000000" stroke="none" 
	d="
M209.287567,376.032959 
	C201.410156,369.446045 195.372101,361.514221 189.026428,353.420837 
	C188.884140,353.113525 189.216431,352.791473 189.382614,352.630493 
	C191.315887,350.282532 192.910431,351.068634 194.403427,352.785767 
	C199.573776,358.732300 204.163742,365.186340 209.982986,370.565826 
	C211.278305,371.763214 211.433273,373.187103 210.465683,375.081818 
	C210.067139,375.601959 209.873322,375.783081 209.287567,376.032959 
z"/>
<path fill="#6F2B44" opacity="1.000000" stroke="none" 
	d="
M377.839905,445.071716 
	C371.091553,447.500702 364.504333,450.117432 357.386810,450.872162 
	C361.882996,447.348114 367.184814,445.590790 372.688965,443.429901 
	C374.181030,445.411896 376.844513,442.213348 377.839905,445.071716 
z"/>
<path fill="#732A4A" opacity="1.000000" stroke="none" 
	d="
M455.273010,235.377167 
	C454.743286,234.545242 454.448090,234.021729 453.982513,233.250519 
	C453.540741,233.029160 453.269318,233.055496 452.597748,233.031891 
	C450.294098,231.904388 450.785858,229.910477 450.320007,227.952911 
	C450.147125,227.301682 450.026703,226.960220 449.382690,226.269531 
	C448.895081,225.906845 448.491943,225.840057 448.276062,225.844482 
	C448.060211,225.848892 447.606537,225.919769 447.372986,225.977631 
	C446.814453,226.134689 446.492889,226.244141 445.918335,226.470093 
	C445.488800,226.654572 445.315216,226.731232 444.872772,226.915131 
	C444.239471,227.174576 443.872009,227.319168 443.212463,227.560745 
	C442.729218,227.740097 442.534851,227.814240 442.046814,228.004395 
	C441.357086,228.284958 440.961395,228.450439 440.238586,228.653503 
	C439.703430,228.617981 439.495911,228.545898 439.005127,228.306183 
	C438.351074,227.906113 437.979645,227.674637 437.352600,227.239594 
	C437.007385,226.836823 436.917175,226.638641 436.815125,226.114014 
	C440.594177,222.825180 445.036743,221.052200 449.262207,218.868271 
	C452.347046,217.273880 453.566772,218.757507 454.036163,221.432770 
	C454.773529,225.635361 455.295258,229.875778 455.880554,234.545990 
	C455.737732,235.223068 455.622650,235.454330 455.273010,235.377167 
z"/>
<path fill="#732A4A" opacity="1.000000" stroke="none" 
	d="
M421.157166,263.702728 
	C414.847748,270.059875 408.387329,276.018005 401.657501,282.167206 
	C401.142242,282.281097 400.896393,282.203949 400.328186,281.906982 
	C397.508789,279.273712 399.578644,277.583466 401.069305,276.027557 
	C405.443604,271.461792 410.591980,267.724060 415.325928,262.943665 
	C416.097443,262.377289 416.593292,262.150513 417.545319,261.946899 
	C418.232300,261.973694 418.501282,262.060120 419.167511,262.297180 
	C420.127167,262.595184 420.607544,262.880615 421.157166,263.702728 
z"/>
<path fill="#792E4F" opacity="1.000000" stroke="none" 
	d="
M377.963837,445.420105 
	C376.179413,445.271973 374.324463,445.748383 373.162048,443.596008 
	C373.341827,443.192902 373.642853,443.052643 374.195068,442.904663 
	C375.447357,442.529999 376.521790,442.552582 377.725159,441.959595 
	C382.478088,439.475861 387.250458,437.941040 392.590820,436.833801 
	C391.385803,438.392365 389.203979,438.705994 387.192200,439.449554 
	C385.764221,439.977356 383.500702,440.450653 385.838074,442.927032 
	C384.224548,443.689819 382.433899,444.298767 380.280426,444.939453 
	C379.708282,445.114288 379.498993,445.257416 378.937683,445.256592 
	C378.467316,445.279022 378.308044,445.381805 377.963837,445.420105 
z"/>
<path fill="#732A4A" opacity="1.000000" stroke="none" 
	d="
M225.040375,391.955475 
	C219.122787,387.517029 214.219971,382.041290 209.037933,376.403320 
	C208.895630,376.101654 209.195435,375.816589 209.345337,375.674072 
	C210.685852,374.120026 212.261597,374.107635 213.401794,375.189667 
	C217.878098,379.437622 222.876389,383.210419 226.178070,388.573853 
	C226.613953,389.281921 226.609375,390.133453 225.781860,391.164307 
	C225.516449,391.459442 225.199066,391.790131 225.040375,391.955475 
z"/>
<path fill="#6F2B44" opacity="1.000000" stroke="none" 
	d="
M311.366394,462.852539 
	C310.013031,462.230347 309.058990,461.623047 307.766174,460.918335 
	C312.293732,459.233978 317.353699,459.114532 322.497437,458.998505 
	C319.617920,462.212372 315.286072,461.467712 311.366394,462.852539 
z"/>
<path fill="#812D52" opacity="1.000000" stroke="none" 
	d="
M553.941528,441.752625 
	C559.741211,443.188324 564.808960,445.632111 570.031311,448.513062 
	C570.186584,449.836121 569.460632,450.256042 568.145142,450.634399 
	C566.406433,451.560364 565.057556,451.326324 563.324707,450.746307 
	C561.961853,450.437866 561.004639,450.140320 559.748901,449.604370 
	C559.210938,449.340179 558.996338,449.233856 558.458740,448.971497 
	C557.481995,448.505585 556.822205,448.209106 555.835022,447.736755 
	C555.278137,447.459595 555.052185,447.350372 554.499756,447.042419 
	C553.363464,445.778442 553.528259,444.418213 553.111755,442.865662 
	C553.288879,442.285858 553.437561,442.082886 553.941528,441.752625 
z"/>
<path fill="#862954" opacity="1.000000" stroke="none" 
	d="
M527.067383,432.751404 
	C527.537537,432.904419 527.772522,432.850616 527.876343,432.911865 
	C529.595093,434.255707 531.639343,434.059509 533.818054,434.698730 
	C534.157593,434.827881 534.078186,434.927490 534.028442,434.887756 
	C536.345825,436.681519 540.837952,434.728424 541.476685,439.589233 
	C540.109802,441.262299 538.680847,441.202667 537.211670,440.891266 
	C533.017029,440.002197 528.927917,438.716919 524.867798,437.372345 
	C522.952820,436.738190 521.251343,435.607178 522.383423,432.685425 
	C524.057739,431.805420 525.305298,432.525543 527.067383,432.751404 
z"/>
<path fill="#832952" opacity="1.000000" stroke="none" 
	d="
M470.186279,374.419128 
	C473.773499,371.417053 478.624329,371.741302 482.753845,369.101868 
	C483.049347,368.883942 483.238861,368.787567 483.324097,368.851105 
	C484.388458,368.510742 485.446716,368.503510 486.966675,368.441498 
	C489.133179,370.215759 488.703552,372.596832 487.138550,372.998688 
	C481.692169,374.397156 476.344086,377.741272 470.186279,374.419128 
z"/>
<path fill="#6F2B44" opacity="1.000000" stroke="none" 
	d="
M380.582825,378.891663 
	C379.672302,383.186676 377.866486,387.262329 373.527649,390.058929 
	C374.900024,386.038239 377.571289,382.529388 380.582825,378.891663 
z"/>
<path fill="#862954" opacity="1.000000" stroke="none" 
	d="
M566.552490,449.426147 
	C567.710999,448.995361 568.560547,448.926758 569.836304,448.814514 
	C570.262634,448.770874 570.140076,448.951813 570.047852,448.893188 
	C570.582458,449.771942 571.599670,449.391663 572.716614,449.789368 
	C573.163025,450.048126 573.343079,450.091309 573.763733,450.273254 
	C574.587280,450.758301 575.157471,451.123444 576.002380,451.672302 
	C576.317871,451.795746 576.161743,451.990051 576.064575,451.912048 
	C576.368835,452.404541 577.012817,452.489929 577.909485,452.776825 
	C578.203491,452.895752 578.025696,452.788544 578.079346,452.699677 
	C578.736145,454.026642 581.002563,454.051910 580.810120,456.446716 
	C579.603638,458.264832 578.230530,458.114868 576.811646,457.695374 
	C573.359985,456.674774 570.258057,454.915375 567.205811,453.069977 
	C565.942017,452.305939 565.411011,451.219940 566.552490,449.426147 
z"/>
<path fill="#732A4A" opacity="1.000000" stroke="none" 
	d="
M414.885040,242.141785 
	C417.300079,238.850998 420.422943,236.633118 424.245056,234.402634 
	C425.217651,234.617111 425.449646,234.795502 425.988159,235.300079 
	C426.726929,236.506134 426.651764,237.356583 425.862000,238.499084 
	C423.234070,240.585602 421.324432,242.956787 418.041931,243.944885 
	C417.153442,243.769669 416.659241,243.610260 415.819519,243.278503 
	C415.312805,242.912384 415.153931,242.711258 414.885040,242.141785 
z"/>
<path fill="#812D52" opacity="1.000000" stroke="none" 
	d="
M540.976257,439.804382 
	C539.269348,436.974274 536.629700,436.592468 534.271118,435.032104 
	C539.203735,435.285065 543.925964,437.427765 549.037842,439.414856 
	C549.293030,439.893158 549.266174,440.161957 549.016052,440.771149 
	C547.588501,441.728180 546.711853,442.955750 544.793213,443.006836 
	C544.091187,442.926666 543.812378,442.869293 543.144165,442.629852 
	C542.014404,442.000366 541.211731,441.616455 540.976257,439.804382 
z"/>
<path fill="#842750" opacity="1.000000" stroke="none" 
	d="
M278.770020,367.793274 
	C278.990295,368.022980 279.141174,368.286499 279.150452,368.438049 
	C279.401550,369.241791 279.554779,369.914276 279.385803,371.071716 
	C277.493256,372.798676 275.494476,372.038635 275.113770,370.761353 
	C273.983856,366.970337 270.991425,363.923676 271.014160,359.332397 
	C272.729736,357.274811 274.140350,357.134277 275.337952,359.284058 
	C276.041077,360.546234 276.410767,361.952850 277.216980,363.635651 
	C277.598846,364.622711 277.837311,365.205536 278.052612,366.106323 
	C278.108154,366.847290 278.281586,367.227051 278.770020,367.793274 
z"/>
<path fill="#732A4A" opacity="1.000000" stroke="none" 
	d="
M400.746216,255.774231 
	C402.658722,252.033447 405.864319,249.474792 409.153198,246.549088 
	C409.685425,246.304047 409.940277,246.247711 410.544250,246.364883 
	C411.030762,246.757050 411.168121,246.975708 411.385315,247.571472 
	C411.586517,248.701080 411.705811,249.453583 411.292480,250.543198 
	C410.988495,251.336990 410.767975,251.763214 410.282166,252.440186 
	C409.913757,252.891312 409.759949,253.064957 409.377106,253.498444 
	C408.996155,253.931580 408.844269,254.104889 408.455566,254.530884 
	C408.055389,254.948074 407.892120,255.112595 407.475189,255.518738 
	C407.046021,255.917450 406.870483,256.074524 406.419556,256.458740 
	C405.949951,256.827942 405.755798,256.969940 405.249023,257.299561 
	C403.495300,258.205963 402.677765,257.003784 401.348114,256.223572 
	C401.037750,256.023987 400.843414,255.857468 400.746216,255.774231 
z"/>
<path fill="#812D52" opacity="1.000000" stroke="none" 
	d="
M527.218994,432.667938 
	C526.269409,432.961365 525.001221,433.018280 523.260925,433.098633 
	C522.537903,433.608887 522.246887,434.070465 521.565063,434.728821 
	C519.225525,435.379425 517.263672,435.595306 515.283630,433.862244 
	C515.063843,433.181091 515.052856,432.888794 515.041016,432.157806 
	C513.861145,430.960236 512.682068,430.201385 511.264343,429.260437 
	C516.466980,429.487335 521.737671,430.703857 527.218994,432.667938 
z"/>
<path fill="#6F2B44" opacity="1.000000" stroke="none" 
	d="
M400.745300,353.070557 
	C400.722717,357.261078 397.366119,359.298096 394.093933,361.751984 
	C395.246704,358.403107 398.032074,355.957825 400.745300,353.070557 
z"/>
<path fill="#792E4F" opacity="1.000000" stroke="none" 
	d="
M480.432922,382.925232 
	C485.211945,379.773407 490.953552,381.400635 496.983826,381.088409 
	C492.073730,382.836548 486.340790,381.715424 480.432922,382.925232 
z"/>
<path fill="#6F2B44" opacity="1.000000" stroke="none" 
	d="
M325.921509,446.698547 
	C326.073761,446.054626 326.385803,445.717529 326.935059,445.130615 
	C328.453369,446.561523 331.604614,447.619537 329.036255,450.804077 
	C329.005005,451.036316 329.022247,450.996521 329.028137,451.019226 
	C328.612366,450.548492 327.988220,450.518494 327.184631,450.167480 
	C326.940582,449.994293 326.986450,450.028839 326.988159,450.057678 
	C327.786926,448.735107 326.611816,447.965302 325.921509,446.698547 
z"/>
<path fill="#6F2B44" opacity="1.000000" stroke="none" 
	d="
M297.625793,290.204529 
	C298.880188,289.625336 300.241272,289.339691 301.889587,288.991394 
	C302.192474,290.508423 302.757629,292.632996 301.054871,293.277374 
	C299.104462,294.015472 298.582275,291.781219 297.625793,290.204529 
z"/>
<path fill="#792E4F" opacity="1.000000" stroke="none" 
	d="
M405.593445,433.006287 
	C402.141693,435.116821 398.189362,436.893219 393.256531,436.874573 
	C396.704590,434.769012 401.053925,434.216064 405.593445,433.006287 
z"/>
<path fill="#812D52" opacity="1.000000" stroke="none" 
	d="
M487.726257,369.640289 
	C486.440918,369.215210 485.431549,369.111115 483.915771,368.960815 
	C486.213196,367.418854 489.353760,367.203613 492.761322,366.489563 
	C493.596832,366.467957 494.051849,366.510071 494.760468,366.780701 
	C495.013885,367.011444 494.992554,367.429260 494.962402,368.078217 
	C494.702972,371.223816 492.833374,371.182526 490.604584,371.208435 
	C489.309357,371.023041 488.545044,370.691528 487.726257,369.640289 
z"/>
<path fill="#732A4A" opacity="1.000000" stroke="none" 
	d="
M277.325562,363.702728 
	C276.046783,362.189270 274.733246,360.338654 273.218018,358.233032 
	C272.870178,357.846161 272.724060,357.714355 272.667908,357.301453 
	C273.068909,356.984863 273.379883,356.949402 274.157806,356.865112 
	C275.924652,358.832001 276.731598,361.048370 277.325562,363.702728 
z"/>
<path fill="#862954" opacity="1.000000" stroke="none" 
	d="
M564.471191,469.537476 
	C563.616821,469.964539 563.100647,469.990906 562.197449,470.040375 
	C561.555542,470.064178 561.338440,469.974091 561.060913,469.641968 
	C560.720459,468.708527 560.072754,468.499817 559.052856,468.225739 
	C558.733948,468.085052 558.337097,467.999786 558.175476,467.877075 
	C557.122803,467.039917 556.822571,466.129700 557.296143,464.536102 
	C561.836609,462.682404 564.620667,464.616425 564.471191,469.537476 
z"/>
<path fill="#792E4F" opacity="1.000000" stroke="none" 
	d="
M495.428955,366.993469 
	C494.542358,366.874176 494.070831,366.736938 493.370667,366.511475 
	C497.107758,365.741882 501.044769,364.834045 505.550507,364.949646 
	C502.740479,366.312347 499.295166,366.658844 495.428955,366.993469 
z"/>
<path fill="#732A4A" opacity="1.000000" stroke="none" 
	d="
M430.745850,230.266663 
	C432.454834,228.539932 434.301117,227.259384 436.475403,225.883209 
	C436.803345,225.787598 436.969513,225.962494 437.052612,226.049896 
	C437.335449,226.347717 437.535156,226.558105 437.981964,227.129181 
	C438.289703,227.776749 438.350372,228.063644 438.440918,228.791855 
	C438.319702,229.828171 438.006836,230.321136 437.151733,230.955658 
	C435.952728,231.602325 435.216766,232.201187 433.799072,232.091492 
	C432.505859,231.593002 431.560120,231.418427 430.745850,230.266663 
z"/>
<path fill="#6F2B44" opacity="1.000000" stroke="none" 
	d="
M515.766479,419.115234 
	C516.837158,420.033386 517.275452,421.123627 517.063721,422.667694 
	C515.865295,423.075287 514.712891,422.950073 514.121033,421.808990 
	C513.401794,420.422546 514.590637,419.839264 515.766479,419.115234 
z"/>
<path fill="#792E4F" opacity="1.000000" stroke="none" 
	d="
M455.026306,235.523926 
	C455.038483,235.068741 455.445465,235.028244 455.649109,235.010010 
	C456.580536,239.326599 456.448090,243.689819 456.197449,248.508636 
	C454.305359,244.756760 455.225891,240.320129 455.026306,235.523926 
z"/>
<path fill="#732A4A" opacity="1.000000" stroke="none" 
	d="
M424.292603,234.330551 
	C425.904144,232.909332 427.651428,231.628799 429.707733,230.249512 
	C430.817139,230.833191 431.361877,231.652954 431.435516,233.261520 
	C430.019928,236.341003 427.998047,236.585236 425.140930,235.003021 
	C424.699829,234.752609 424.428375,234.471222 424.292603,234.330551 
z"/>
<path fill="#6F2B44" opacity="1.000000" stroke="none" 
	d="
M384.718933,373.060638 
	C384.928497,375.202209 383.921082,376.907379 381.515076,378.045319 
	C381.595306,376.067963 383.127960,374.714996 384.718933,373.060638 
z"/>
<path fill="#732A4A" opacity="1.000000" stroke="none" 
	d="
M295.602844,400.728577 
	C293.610077,399.743500 292.503723,397.828369 292.155090,395.057465 
	C293.251160,396.598572 294.381775,398.502533 295.602844,400.728577 
z"/>
<path fill="#6F2B44" opacity="1.000000" stroke="none" 
	d="
M323.031372,408.308746 
	C324.376984,409.959137 325.786591,411.967224 325.406891,414.986450 
	C324.576660,413.138947 323.807983,410.912964 323.031372,408.308746 
z"/>
<path fill="#812D52" opacity="1.000000" stroke="none" 
	d="
M580.120117,456.261536 
	C579.486450,454.970123 578.940430,454.081482 578.263794,452.901825 
	C580.210022,453.060120 581.958374,454.162415 583.755005,456.024780 
	C583.267761,457.368103 582.458984,457.427765 581.220459,457.310181 
	C580.615112,457.033447 580.411499,456.848877 580.120117,456.261536 
z"/>
<path fill="#812D52" opacity="1.000000" stroke="none" 
	d="
M308.035278,305.448639 
	C309.300720,308.369476 309.279358,311.777405 308.295532,315.573303 
	C308.086639,312.590118 308.018311,309.244354 308.035278,305.448639 
z"/>
<path fill="#6F2B44" opacity="1.000000" stroke="none" 
	d="
M393.501160,361.936340 
	C393.682892,364.185059 392.180969,365.554962 389.962402,366.775116 
	C390.232513,364.860474 391.687775,363.441681 393.501160,361.936340 
z"/>
<path fill="#6F2B44" opacity="1.000000" stroke="none" 
	d="
M379.609192,392.167358 
	C379.368256,390.257507 380.518707,388.979248 382.539917,387.986206 
	C382.263824,389.552368 381.345093,390.983490 379.609192,392.167358 
z"/>
<path fill="#6F2B44" opacity="1.000000" stroke="none" 
	d="
M400.440704,368.020203 
	C400.342743,366.056396 401.607910,364.869446 403.803162,364.102173 
	C403.490570,365.740448 402.049591,366.764069 400.440704,368.020203 
z"/>
<path fill="#6F2B44" opacity="1.000000" stroke="none" 
	d="
M388.543304,381.100769 
	C388.423798,379.230927 389.581451,377.972046 391.642242,377.067200 
	C391.451019,378.729034 390.118652,379.830750 388.543304,381.100769 
z"/>
<path fill="#6F2B44" opacity="1.000000" stroke="none" 
	d="
M376.521820,396.075378 
	C376.327332,394.493988 377.093750,393.205902 379.013916,392.351868 
	C378.951172,393.786041 377.891541,394.865479 376.521820,396.075378 
z"/>
<path fill="#812D52" opacity="1.000000" stroke="none" 
	d="
M533.889648,434.589233 
	C532.140381,434.934418 530.160156,434.890045 528.250977,433.210876 
	C529.860657,433.432281 531.741211,433.891449 533.889648,434.589233 
z"/>
<path fill="#812D52" opacity="1.000000" stroke="none" 
	d="
M501.425262,381.108276 
	C503.717102,379.843353 506.496826,379.750092 509.674561,380.904663 
	C507.314606,381.092041 504.594666,381.131622 501.425262,381.108276 
z"/>
<path fill="#812D52" opacity="1.000000" stroke="none" 
	d="
M549.214355,439.744568 
	C550.798096,440.159332 552.276184,440.694336 554.025574,441.427338 
	C554.296814,441.625336 554.125488,441.861481 554.039551,441.979370 
	C553.432617,442.984039 552.613464,443.371948 551.163818,443.567749 
	C550.053894,443.795258 549.442078,443.710114 548.536560,443.045471 
	C547.976685,442.065826 547.998291,441.447235 548.586548,440.471313 
	C548.897522,440.105133 549.108826,439.864838 549.214355,439.744568 
z"/>
<path fill="#792E4F" opacity="1.000000" stroke="none" 
	d="
M455.905762,268.531433 
	C454.860687,266.212189 454.676819,263.465271 456.042786,260.390533 
	C456.151215,262.731812 456.086395,265.414185 455.905762,268.531433 
z"/>
<path fill="#812D52" opacity="1.000000" stroke="none" 
	d="
M465.367310,385.091431 
	C466.770325,384.477631 468.569885,383.865601 470.724487,383.185822 
	C471.311554,383.289429 471.543488,383.460846 471.400635,383.848297 
	C469.404419,385.085358 467.583466,385.085724 465.367310,385.091431 
z"/>
<path fill="#812D52" opacity="1.000000" stroke="none" 
	d="
M557.742065,464.908020 
	C557.974121,465.869446 557.988037,466.497742 558.007935,467.440186 
	C557.151794,467.283661 556.289673,466.813019 555.219727,466.127747 
	C555.243774,465.683289 555.482849,465.461243 555.914307,465.086945 
	C556.495850,464.492249 556.970642,464.374847 557.742065,464.908020 
z"/>
<path fill="#6F2B44" opacity="1.000000" stroke="none" 
	d="
M272.822998,459.195862 
	C273.048859,459.535034 273.011200,459.742981 272.904663,460.255493 
	C271.391144,460.102081 269.946503,459.644104 268.213867,459.015076 
	C269.470428,458.917603 271.014984,458.991119 272.822998,459.195862 
z"/>
<path fill="#7D244B" opacity="1.000000" stroke="none" 
	d="
M430.243896,232.981583 
	C429.977783,231.938904 429.989960,231.342941 430.009460,230.448868 
	C430.016754,230.150772 430.277863,229.923248 430.443207,229.871872 
	C431.373840,229.852539 432.139160,229.884567 433.287048,229.931503 
	C434.892365,233.269669 434.236206,233.995544 430.243896,232.981583 
z"/>
<path fill="#792E4F" opacity="1.000000" stroke="none" 
	d="
M516.587402,381.641296 
	C518.563721,380.875397 520.942749,380.848267 523.644958,381.809326 
	C521.658752,381.884277 519.330994,381.823242 516.587402,381.641296 
z"/>
<path fill="#7D244B" opacity="1.000000" stroke="none" 
	d="
M421.553101,264.015320 
	C420.869446,264.089111 420.430725,264.076477 419.663025,264.055054 
	C417.297760,260.938385 418.918671,260.237152 422.211487,260.668457 
	C422.863708,261.289398 423.074158,261.587158 423.129211,262.409363 
	C422.581940,263.265472 422.189941,263.597198 421.553101,264.015320 
z"/>
<path fill="#732A4A" opacity="1.000000" stroke="none" 
	d="
M278.571167,371.584595 
	C278.842682,370.688049 278.934662,370.089600 279.093201,369.040344 
	C279.749542,369.835114 280.339355,371.080658 280.945679,372.675842 
	C280.551331,373.006897 280.140472,372.988312 279.421417,372.959290 
	C278.666534,372.732971 278.435547,372.371124 278.571167,371.584595 
z"/>
<path fill="#732A4A" opacity="1.000000" stroke="none" 
	d="
M271.816833,348.650269 
	C270.797577,347.945862 270.295135,346.666138 270.165588,344.849182 
	C270.696533,345.758331 271.248199,347.033020 271.816833,348.650269 
z"/>
<path fill="#812D52" opacity="1.000000" stroke="none" 
	d="
M341.076721,423.508606 
	C341.852539,424.812988 342.075775,426.548615 341.209106,428.633423 
	C341.058899,427.271729 341.035461,425.596741 341.076721,423.508606 
z"/>
<path fill="#6F2B44" opacity="1.000000" stroke="none" 
	d="
M388.665894,367.911346 
	C388.694550,369.081360 387.979797,370.110077 386.680450,371.088379 
	C386.430328,369.779602 387.366791,368.894470 388.665894,367.911346 
z"/>
<path fill="#6F2B44" opacity="1.000000" stroke="none" 
	d="
M383.164429,387.740234 
	C383.005920,386.768341 383.490143,385.887146 384.735260,385.164429 
	C384.493103,385.891144 383.968079,386.750244 383.164429,387.740234 
z"/>
<path fill="#732A4A" opacity="1.000000" stroke="none" 
	d="
M423.247223,262.838379 
	C422.949097,262.718475 422.924316,262.503204 422.863831,261.964905 
	C422.677246,260.840363 423.057922,260.384949 424.123901,260.215393 
	C424.647125,260.384979 424.839264,260.499237 425.131531,260.933502 
	C424.661285,261.750000 424.090912,262.246521 423.247223,262.838379 
z"/>
<path fill="#732A4A" opacity="1.000000" stroke="none" 
	d="
M286.700439,384.728821 
	C286.281952,384.341858 285.814453,383.636475 285.260620,382.613831 
	C285.666626,383.001160 286.159027,383.705750 286.700439,384.728821 
z"/>
<path fill="#6F2B44" opacity="1.000000" stroke="none" 
	d="
M385.324524,384.927246 
	C385.456238,384.365631 385.878601,383.715240 386.576080,382.940155 
	C386.439178,383.489807 386.027161,384.164154 385.324524,384.927246 
z"/>
<path fill="#792E4F" opacity="1.000000" stroke="none" 
	d="
M471.423553,384.083008 
	C471.025787,384.064301 471.047272,383.589539 471.063416,383.353790 
	C472.270355,383.101135 473.461151,383.084229 475.099915,383.071228 
	C474.510468,384.160492 473.126068,383.986603 471.423553,384.083008 
z"/>
<path fill="#732A4A" opacity="1.000000" stroke="none" 
	d="
M272.816040,351.759766 
	C272.022369,351.474213 271.725006,350.669128 271.848694,349.470032 
	C272.188293,349.980804 272.496277,350.719147 272.816040,351.759766 
z"/>
<path fill="#812D52" opacity="1.000000" stroke="none" 
	d="
M576.157532,451.563293 
	C575.674011,451.463135 575.030090,451.130524 574.195312,450.604980 
	C574.668640,450.718292 575.332886,451.024536 576.157532,451.563293 
z"/>
<path fill="#732A4A" opacity="1.000000" stroke="none" 
	d="
M409.578186,246.527191 
	C409.955261,245.812241 410.479980,245.264084 411.260559,244.583466 
	C411.781494,244.529114 412.046570,244.607239 412.634735,244.945709 
	C413.066406,245.460999 413.174988,245.715942 413.291321,246.387207 
	C413.167145,247.048370 413.035187,247.293182 412.549377,247.759918 
	C411.618347,248.082550 411.095581,247.956833 410.325897,247.314728 
	C410.024689,247.024384 409.725800,246.693985 409.578186,246.527191 
z"/>
<path fill="#812D52" opacity="1.000000" stroke="none" 
	d="
M572.752869,449.758087 
	C572.166138,449.716248 571.349304,449.427521 570.244019,448.986694 
	C570.811340,449.060150 571.667053,449.285675 572.752869,449.758087 
z"/>
<path fill="#6F2B44" opacity="1.000000" stroke="none" 
	d="
M377.536987,441.668335 
	C376.997345,441.986145 376.091187,442.366119 374.815674,442.821533 
	C375.354340,442.508148 376.262390,442.119324 377.536987,441.668335 
z"/>
<path fill="#732A4A" opacity="1.000000" stroke="none" 
	d="
M424.845764,260.060211 
	C425.501587,259.988068 425.945953,259.995026 426.724182,260.011353 
	C426.630554,260.378754 426.202972,260.736847 425.503540,261.174225 
	C425.231659,261.253510 424.913910,260.920990 424.754608,260.755127 
	C424.595306,260.589233 424.634308,260.139313 424.845764,260.060211 
z"/>
<path fill="#6F2B44" opacity="1.000000" stroke="none" 
	d="
M408.016724,360.465790 
	C408.064850,360.121155 408.376495,359.696533 408.939270,359.170105 
	C408.887024,359.507477 408.583649,359.946625 408.016724,360.465790 
z"/>
<path fill="#812D52" opacity="1.000000" stroke="none" 
	d="
M578.018799,452.616760 
	C577.641357,452.634277 577.079285,452.372833 576.242310,451.972717 
	C576.589661,452.001923 577.211853,452.169830 578.018799,452.616760 
z"/>
<path fill="#812D52" opacity="1.000000" stroke="none" 
	d="
M558.958679,468.333618 
	C559.305847,468.413177 559.877686,468.741333 560.706238,469.280090 
	C560.369751,469.187897 559.776550,468.885040 558.958679,468.333618 
z"/>
<path fill="#732A4A" opacity="1.000000" stroke="none" 
	d="
M273.834747,354.714111 
	C273.614563,354.495667 273.379120,353.991150 273.078003,353.215149 
	C273.281372,353.438446 273.550415,353.933228 273.834747,354.714111 
z"/>
<path fill="#6F2B44" opacity="1.000000" stroke="none" 
	d="
M414.436646,354.398438 
	C414.570953,354.043976 415.012177,353.599731 415.758118,353.066223 
	C415.623047,353.420868 415.183319,353.864746 414.436646,354.398438 
z"/>
<path fill="#6F2B44" opacity="1.000000" stroke="none" 
	d="
M412.414795,356.153076 
	C412.508209,355.810913 412.880890,355.391754 413.526855,354.878937 
	C413.431427,355.215576 413.062714,355.645844 412.414795,356.153076 
z"/>
<path fill="#812D52" opacity="1.000000" stroke="none" 
	d="
M584.071045,455.933350 
	C584.407349,456.016510 584.704529,456.155762 585.141113,456.504059 
	C585.238708,456.920410 585.196777,457.127686 584.848633,457.420471 
	C584.115540,457.371674 583.832031,457.087067 583.812500,456.388367 
	C583.954468,456.102295 584.031799,455.989410 584.071045,455.933350 
z"/>
<path fill="#732A4A" opacity="1.000000" stroke="none" 
	d="
M413.767365,243.034210 
	C413.847870,242.413803 414.059296,242.171234 414.556244,241.880127 
	C414.774994,241.773422 414.911713,241.928558 414.979797,242.006378 
	C415.316437,242.471191 415.333282,242.859711 414.758179,243.385895 
	C414.251465,243.465805 414.041473,243.409805 413.767365,243.034210 
z"/>
<path fill="#812D52" opacity="1.000000" stroke="none" 
	d="
M585.205078,456.790314 
	C585.592468,456.721710 585.888184,456.795288 586.352417,457.068604 
	C586.537048,457.203400 586.271973,457.604797 586.135254,457.802673 
	C585.516541,458.258179 585.119141,458.148407 584.886414,457.372406 
	C584.978455,457.021576 585.129639,456.867493 585.205078,456.790314 
z"/>
<path fill="#6F2B44" opacity="1.000000" stroke="none" 
	d="
M278.714386,460.009979 
	C278.787598,460.083832 278.423981,460.074554 278.243713,460.052368 
	C278.233429,459.881165 278.425995,459.849792 278.714386,460.009979 
z"/>
<path fill="#6F2B44" opacity="1.000000" stroke="none" 
	d="
M392.250183,376.884613 
	C392.104462,376.647644 392.284485,376.373749 392.736206,375.998108 
	C392.794434,376.167847 392.650452,376.484955 392.250183,376.884613 
z"/>
<path fill="#6F2B44" opacity="1.000000" stroke="none" 
	d="
M387.400757,382.280640 
	C387.347931,382.096497 387.556915,381.782990 388.010498,381.322144 
	C388.057617,381.500336 387.860107,381.825806 387.400757,382.280640 
z"/>
<path fill="#6F2B44" opacity="1.000000" stroke="none" 
	d="
M393.492981,375.302185 
	C393.449036,375.116516 393.676971,374.806732 394.153015,374.344788 
	C394.189026,374.521088 393.976959,374.849609 393.492981,375.302185 
z"/>
<path fill="#732A4A" opacity="1.000000" stroke="none" 
	d="
M281.859375,374.730103 
	C281.717041,374.689972 281.503113,374.346558 281.158752,373.726379 
	C281.281494,373.775391 281.534637,374.101074 281.859375,374.730103 
z"/>
<path fill="#6F2B44" opacity="1.000000" stroke="none" 
	d="
M324.119995,386.965424 
	C324.019348,386.913391 323.994537,386.731079 323.981140,386.272766 
	C324.193909,386.240845 324.261688,386.520325 324.119995,386.965424 
z"/>
<path fill="#732A4A" opacity="1.000000" stroke="none" 
	d="
M288.946320,388.706726 
	C288.794342,388.677368 288.565887,388.342621 288.189758,387.739380 
	C288.317993,387.781036 288.593903,388.091187 288.946320,388.706726 
z"/>
<path fill="#732A4A" opacity="1.000000" stroke="none" 
	d="
M289.937897,390.731995 
	C289.790070,390.694702 289.553375,390.345337 289.170166,389.713867 
	C289.298767,389.761108 289.573883,390.090515 289.937897,390.731995 
z"/>
<path fill="#6F2B44" opacity="1.000000" stroke="none" 
	d="
M325.002930,391.791870 
	C324.798676,391.838379 324.709045,391.564819 324.769043,391.114655 
	C324.877380,391.151276 324.943695,391.329193 325.002930,391.791870 
z"/>
<path fill="#732A4A" opacity="1.000000" stroke="none" 
	d="
M291.079163,392.642517 
	C290.913971,392.627136 290.641144,392.296295 290.192505,391.694946 
	C290.334961,391.725342 290.653229,392.026154 291.079163,392.642517 
z"/>
<path fill="#6F2B44" opacity="1.000000" stroke="none" 
	d="
M399.316162,369.052124 
	C399.269714,368.868164 399.477478,368.599762 399.915161,368.214172 
	C399.953461,368.387207 399.761932,368.677460 399.316162,369.052124 
z"/>
<path fill="#732A4A" opacity="1.000000" stroke="none" 
	d="
M278.925598,367.705383 
	C278.764709,367.675201 278.539093,367.327393 278.171448,366.701935 
	C278.306580,366.745453 278.583710,367.066620 278.925598,367.705383 
z"/>
<path fill="#6F2B44" opacity="1.000000" stroke="none" 
	d="
M375.662506,397.219147 
	C375.491028,397.008148 375.632965,396.712036 376.064941,396.308136 
	C376.137634,396.467957 376.011292,396.779205 375.662506,397.219147 
z"/>
<path fill="#732A4A" opacity="1.000000" stroke="none" 
	d="
M412.649719,243.956680 
	C412.778503,243.334213 413.001221,243.107300 413.489441,242.822906 
	C413.703217,242.714584 413.863953,242.870575 413.944427,242.948456 
	C414.303253,243.445892 414.293182,243.858429 413.672424,244.393524 
	C413.130768,244.449249 412.911346,244.375336 412.649719,243.956680 
z"/>
<path fill="#6F2B44" opacity="1.000000" stroke="none" 
	d="
M411.381683,357.157532 
	C411.332672,356.977081 411.536713,356.687469 411.976410,356.267334 
	C412.019623,356.440704 411.827209,356.744568 411.381683,357.157532 
z"/>
<path fill="#732A4A" opacity="1.000000" stroke="none" 
	d="
M294.042297,409.324463 
	C294.203339,409.287689 294.547485,409.540192 295.176880,409.935791 
	C295.049896,409.923859 294.637695,409.768829 294.042297,409.324463 
z"/>
<path fill="#6F2B44" opacity="1.000000" stroke="none" 
	d="
M375.600342,428.143921 
	C375.542419,428.103851 375.752106,428.025696 375.820068,428.011963 
	C375.888031,427.998199 375.658295,428.183990 375.600342,428.143921 
z"/>
<path fill="#732A4A" opacity="1.000000" stroke="none" 
	d="
M270.006012,343.715027 
	C269.831177,343.694672 269.588654,343.344116 269.189240,342.715424 
	C269.334351,342.753143 269.636322,343.069000 270.006012,343.715027 
z"/>
<path fill="#732A4A" opacity="1.000000" stroke="none" 
	d="
M401.223572,282.217590 
	C401.291412,282.669464 401.137482,282.949127 400.751312,283.361694 
	C400.455139,283.406128 400.333984,283.286255 400.032776,282.984802 
	C399.730774,282.403320 399.829865,282.068909 400.439972,281.797852 
	C400.729828,281.795593 401.059021,282.076874 401.223572,282.217590 
z"/>
<path fill="#732A4A" opacity="1.000000" stroke="none" 
	d="
M411.641968,244.591782 
	C411.692108,244.187881 411.914886,243.973785 412.396149,243.710327 
	C412.607544,243.611938 412.810699,243.813141 412.912201,243.913834 
	C413.230408,244.495575 413.144745,244.900513 412.365936,245.114822 
	C412.021088,245.011887 411.767517,244.732559 411.641968,244.591782 
z"/>
<path fill="#6F2B44" opacity="1.000000" stroke="none" 
	d="
M378.756836,445.165588 
	C378.807068,445.083588 379.028503,445.054596 379.583801,444.998352 
	C379.587738,445.053619 379.257874,445.136108 378.756836,445.165588 
z"/>
<path fill="#B22472" opacity="1.000000" stroke="none" 
	d="
M317.510742,255.622345 
	C322.802460,234.352997 330.954590,214.831528 343.754517,197.379745 
	C345.636993,194.813126 346.755096,194.996735 348.615936,197.285187 
	C354.746765,204.824661 359.434174,213.220535 363.626556,221.924454 
	C369.050140,233.184357 373.579315,244.794678 377.423370,256.689941 
	C379.600250,263.426086 380.007599,269.751434 374.831207,275.407440 
	C373.913361,276.410370 373.050385,277.516449 371.549683,277.354736 
	C369.697418,277.155121 369.222229,275.605530 368.931549,274.123108 
	C366.126862,259.819214 358.423950,247.757935 351.232513,235.473007 
	C348.245148,230.369751 346.415131,230.273926 343.006683,235.209473 
	C331.070923,252.492630 324.221161,271.788025 320.738373,292.378510 
	C318.734802,304.223846 318.510742,316.210388 317.583496,328.146576 
	C316.389740,343.513672 318.718170,358.543213 319.591370,374.151062 
	C310.772034,357.899323 306.790771,296.158905 317.510742,255.622345 
z"/>
<path fill="#B22472" opacity="1.000000" stroke="none" 
	d="
M320.524658,381.502075 
	C320.633545,382.084961 320.619934,382.545990 320.606323,383.007019 
	C320.341797,382.916687 319.912750,382.893982 319.842743,382.723724 
	C319.607178,382.150726 319.264496,381.423065 320.524658,381.502075 
z"/>
<path fill="#B12471" opacity="1.000000" stroke="none" 
	d="
M241.269623,456.373779 
	C228.381760,454.356537 216.478943,450.699585 205.006699,445.628357 
	C191.768448,439.776489 178.530884,433.913849 166.202621,426.240082 
	C144.883835,412.970245 125.265060,397.687775 109.314758,378.077148 
	C106.578720,374.713226 106.979355,373.547729 111.273689,372.295044 
	C134.879532,365.409119 158.949387,365.893311 183.104691,367.805634 
	C186.758545,368.094910 189.836578,369.588074 192.152542,372.499176 
	C193.070724,373.653320 194.476868,374.714722 193.928513,376.389374 
	C193.256943,378.440277 191.282913,378.090668 189.681030,378.169800 
	C178.867188,378.703827 168.071198,379.421539 157.377914,381.210388 
	C155.081497,381.594513 152.785446,382.044830 150.538467,382.648071 
	C144.573288,384.249695 143.494888,387.519196 147.567123,392.403717 
	C156.327286,402.911255 165.733612,412.819885 176.619064,421.164185 
	C196.064880,436.070465 217.386047,447.514740 240.982666,455.418701 
	C241.438934,455.903168 241.590851,456.187134 241.269623,456.373779 
z"/>
<path fill="#7D244B" opacity="1.000000" stroke="none" 
	d="
M272.739563,461.163391 
	C282.653412,462.185028 292.261688,462.049652 301.864594,462.277496 
	C289.935181,464.270538 277.944519,463.059235 265.516968,462.950470 
	C267.498230,462.394928 269.939484,461.847412 272.739563,461.163391 
z"/>
<path fill="#A62569" opacity="1.000000" stroke="none" 
	d="
M248.477615,457.432312 
	C252.663879,457.920044 256.377075,458.690002 260.090302,459.459930 
	C260.034760,459.918304 259.979248,460.376678 259.923737,460.835052 
	C256.432343,460.499725 252.967072,459.894775 249.232681,458.510376 
	C248.603790,458.139099 248.304169,457.926788 248.477615,457.432312 
z"/>
<path fill="#B12471" opacity="1.000000" stroke="none" 
	d="
M248.569229,457.053040 
	C248.943069,457.349152 248.935471,457.548187 248.915634,458.049316 
	C246.366608,457.987427 243.730743,458.065826 241.109970,456.476532 
	C240.796448,456.276398 241.041031,455.951599 241.164032,455.785400 
	C243.587280,456.064789 245.887527,456.510376 248.569229,457.053040 
z"/>
<path fill="#B12471" opacity="1.000000" stroke="none" 
	d="
M278.511414,371.045593 
	C278.818939,371.658447 278.887115,372.030365 279.034241,372.675568 
	C280.416595,377.757080 283.621979,381.859100 284.313904,387.281921 
	C284.357025,387.929626 284.379974,388.197327 284.005585,388.397980 
	C278.007904,382.049072 274.740692,374.352631 270.871857,367.046539 
	C260.723663,347.881989 252.433456,327.916138 246.705887,306.995544 
	C239.520279,280.749207 236.871719,254.050842 240.249924,226.918610 
	C240.967606,221.154510 242.140488,220.413269 247.222443,222.775375 
	C268.820648,232.814255 286.400177,247.616165 299.856049,267.323914 
	C303.582275,272.781403 301.627136,278.452332 300.121613,283.625580 
	C299.082611,287.195831 296.704102,284.156281 295.522797,282.582123 
	C288.968597,273.848145 281.239868,266.354614 272.197144,260.243195 
	C269.307373,258.290192 266.341583,256.423370 263.279816,254.757324 
	C258.655731,252.241165 255.804565,253.585602 255.448730,258.939606 
	C254.997055,265.735138 254.829224,272.604614 255.270676,279.394623 
	C256.910767,304.620636 262.328491,329.108154 270.469238,353.009766 
	C270.891205,354.248779 271.691925,355.358765 272.537109,356.774597 
	C272.757935,357.020325 272.876953,357.502136 272.946655,357.740051 
	C273.763123,362.665405 275.420654,366.979675 278.511414,371.045593 
z"/>
<path fill="#B12471" opacity="1.000000" stroke="none" 
	d="
M290.009888,397.548767 
	C286.837982,395.114014 284.876373,392.362793 283.707275,388.662415 
	C283.608215,388.330963 283.969421,387.998840 284.151733,387.830383 
	C287.431793,389.686096 288.572113,393.023102 290.132263,396.485779 
	C290.305634,397.138794 290.373413,397.455383 290.009888,397.548767 
z"/>
<path fill="#8E2655" opacity="1.000000" stroke="none" 
	d="
M299.794891,410.904175 
	C300.637909,412.528290 302.282959,413.715881 301.834442,415.812897 
	C299.505768,415.676117 299.262695,413.031586 297.211609,412.216339 
	C297.546356,411.081940 298.379211,410.612976 299.794891,410.904175 
z"/>
<path fill="#B12471" opacity="1.000000" stroke="none" 
	d="
M290.073120,396.948181 
	C290.404938,397.290283 291.015594,397.769653 290.234039,398.200439 
	C290.174713,398.233124 289.876404,397.832306 289.633911,397.479279 
	C289.578583,397.325562 289.908386,397.074158 290.073120,396.948181 
z"/>
<path fill="#B12471" opacity="1.000000" stroke="none" 
	d="
M293.490601,403.489471 
	C293.521271,403.475830 293.459930,403.503113 293.490601,403.489471 
z"/>
<path fill="#AB256D" opacity="1.000000" stroke="none" 
	d="
M225.817657,391.607880 
	C220.801895,385.833557 215.625549,380.666107 209.776428,375.709473 
	C203.723999,367.371887 197.000244,360.025787 189.825806,352.648743 
	C188.124039,348.292450 185.275497,344.991180 182.815720,341.442017 
	C171.590820,325.245850 162.111420,308.141785 156.455566,289.159241 
	C154.474289,282.509552 155.147064,281.648895 161.960022,282.035217 
	C181.550766,283.146240 200.420944,287.304596 218.109634,296.106171 
	C221.224976,297.656281 224.348801,299.162292 227.416138,300.827332 
	C233.667389,304.220703 237.093079,309.138184 238.162827,316.005066 
	C238.413223,317.612427 239.555450,319.349030 238.110123,320.693359 
	C236.626984,322.072845 234.913208,320.977081 233.485153,320.219299 
	C223.768921,315.063660 213.176514,313.052795 202.459473,311.500031 
	C200.490067,311.214661 198.478836,311.156525 196.484512,311.118103 
	C193.053101,311.051880 191.697739,312.754486 192.163940,316.169464 
	C192.920898,321.714264 195.275818,326.731842 197.570282,331.677917 
	C210.265305,359.043488 227.908279,382.997284 250.000031,403.356262 
	C260.203094,412.759094 270.460114,422.436249 282.750671,429.383026 
	C284.582062,430.418213 286.185699,431.856506 288.480835,433.537659 
	C285.393494,434.881500 283.590088,433.309601 282.024597,432.316101 
	C272.499329,426.271088 262.612671,420.804016 253.456085,414.162506 
	C245.361359,408.291077 237.778656,401.842834 230.469757,395.041168 
	C229.146469,393.809753 227.575485,392.844482 225.817657,391.607880 
z"/>
<path fill="#010000" opacity="1.000000" stroke="none" 
	d="
M327.030945,450.354858 
	C327.675385,449.571747 328.278168,449.815704 328.927124,450.704254 
	C328.288391,451.566284 327.665283,451.372772 327.030945,450.354858 
z"/>
<path fill="#AE236E" opacity="1.000000" stroke="none" 
	d="
M126.968315,449.884491 
	C135.668350,446.024963 143.990982,442.303955 152.664185,439.278809 
	C160.592728,436.513367 166.557266,440.027039 172.821503,443.459076 
	C174.456497,444.354889 174.193344,445.622650 172.749130,446.553101 
	C171.636444,447.269989 170.461792,447.981049 169.214355,448.384521 
	C156.087311,452.630646 144.607574,460.074799 132.924744,467.097198 
	C126.878799,470.731293 127.098152,474.076111 133.548767,477.411499 
	C155.968506,489.003998 179.843323,495.812408 204.822174,499.052338 
	C214.168945,500.264679 223.555008,500.879303 233.667358,501.059143 
	C231.861954,503.667664 229.780609,503.673187 227.925247,503.844604 
	C195.146561,506.873047 162.693359,505.220886 130.965805,495.943756 
	C117.715614,492.069397 104.942581,486.735779 92.882851,479.872650 
	C86.102791,476.014160 85.988251,474.565308 92.051041,469.890839 
	C102.675171,461.699463 114.780556,456.097656 126.968315,449.884491 
z"/>
<path fill="#AE236E" opacity="1.000000" stroke="none" 
	d="
M241.465454,500.170502 
	C242.067047,501.571533 240.948807,501.381744 240.295227,501.492279 
	C239.815445,501.573425 239.202682,501.126740 239.576355,500.678375 
	C239.903900,500.285370 240.698944,500.281982 241.465454,500.170502 
z"/>
<path fill="#B12471" opacity="1.000000" stroke="none" 
	d="
M558.285522,465.320465 
	C557.547302,465.164612 557.134338,465.088104 556.410400,464.969238 
	C555.171021,463.040497 553.557800,461.870544 551.782471,460.914337 
	C515.421082,441.330536 476.789764,431.268372 435.310944,433.246918 
	C431.493073,433.429016 427.685425,433.872009 423.880676,434.267517 
	C420.180908,434.652100 416.490967,435.131470 412.704193,434.935150 
	C419.592621,431.835205 427.027771,431.357391 434.280762,430.222015 
	C448.273682,428.031586 462.378357,427.716400 476.541931,427.764282 
	C489.277649,427.807343 501.635742,430.498077 514.612061,431.756958 
	C515.223328,431.744873 515.406433,431.770630 515.865845,431.820496 
	C517.549805,431.926147 518.905212,432.317780 520.603882,432.698608 
	C521.335083,432.919098 521.751038,432.984528 522.477844,433.085999 
	C528.127319,436.474030 534.385376,437.021057 540.614502,438.883667 
	C541.002136,438.928772 541.041870,438.976837 541.069214,438.991882 
	C541.698059,439.731293 542.553894,439.406738 543.571045,439.657562 
	C543.843567,439.774261 544.068481,439.850922 544.180542,439.890259 
	C545.490295,441.007568 547.300781,440.261017 548.772339,441.521729 
	C549.433105,441.797089 549.818970,441.892731 550.497803,442.043915 
	C552.254211,443.025635 553.856812,443.664215 555.710083,444.525696 
	C556.161682,444.754639 556.341003,444.805450 556.790039,444.930359 
	C557.721008,445.754883 558.652893,445.384247 559.704956,445.769714 
	C559.961914,445.958832 560.002991,445.989563 560.027954,445.995331 
	C560.734924,446.623627 561.647949,446.837341 562.679443,447.526489 
	C564.036682,448.114105 565.118347,448.504333 566.530762,448.979248 
	C570.440918,452.354065 574.823975,454.141693 579.674316,455.791992 
	C580.032410,455.858765 580.478760,455.957886 580.704468,455.994141 
	C582.500427,456.811432 583.900452,457.899872 585.737305,458.831421 
	C591.169434,462.134338 595.675293,466.303375 601.551758,468.951599 
	C602.369568,469.417755 602.957275,469.487671 603.732910,469.825500 
	C603.944397,470.027008 603.948120,470.079254 603.971313,470.067078 
	C604.165405,470.205719 604.336426,470.356598 604.733521,470.764069 
	C604.959656,471.020691 604.967957,471.035339 604.976196,471.036438 
	C605.241089,471.230316 605.468811,471.452698 605.826721,471.883362 
	C607.964844,474.061493 607.008850,475.426422 605.149109,476.868561 
	C601.219849,479.915680 597.152161,482.705658 592.268433,484.862488 
	C591.277771,485.710968 590.366455,485.400208 589.358643,485.823303 
	C584.285583,488.846527 578.788635,489.996704 573.275208,492.154572 
	C572.739441,492.360779 572.571228,492.467896 572.191040,492.786133 
	C534.189209,504.378143 495.808960,507.906494 456.623688,501.450928 
	C492.720276,501.646759 527.109924,494.486359 559.718018,477.984802 
	C560.208008,477.713043 560.372925,477.588837 560.753662,477.242493 
	C560.969482,477.020325 561.004211,477.004364 561.015625,476.989044 
	C561.435425,476.560547 561.985962,476.510071 562.684265,476.184021 
	C564.579407,474.371887 569.544495,473.784698 564.413208,470.029510 
	C562.949280,467.625916 560.970337,466.281342 558.285522,465.320465 
z"/>
<path fill="#862954" opacity="1.000000" stroke="none" 
	d="
M585.960693,458.815247 
	C584.184875,458.653992 582.609192,457.887695 581.144043,456.283997 
	C581.686523,456.047333 582.442810,456.064240 583.576782,456.091736 
	C584.173767,456.315552 584.398621,456.522736 584.803772,456.872742 
	C585.200867,457.243500 585.426453,457.462219 585.826843,457.839111 
	C585.990845,458.181641 585.983154,458.362732 585.960693,458.815247 
z"/>
<path fill="#8E2655" opacity="1.000000" stroke="none" 
	d="
M589.445129,485.999573 
	C589.890564,485.752625 590.629761,485.442230 591.669678,485.088623 
	C591.226624,485.342316 590.482727,485.639221 589.445129,485.999573 
z"/>
<path fill="#8E2655" opacity="1.000000" stroke="none" 
	d="
M603.699280,469.882507 
	C603.418152,469.808044 602.891846,469.589050 602.127502,469.207458 
	C602.411011,469.275909 602.932556,469.506989 603.699280,469.882507 
z"/>
<path fill="#8E2655" opacity="1.000000" stroke="none" 
	d="
M562.618103,476.076599 
	C562.411682,476.246399 561.965027,476.516937 561.272705,476.880615 
	C561.477295,476.708282 561.927551,476.442841 562.618103,476.076599 
z"/>
<path fill="#8E2655" opacity="1.000000" stroke="none" 
	d="
M572.141235,492.880524 
	C572.165710,492.805847 572.366455,492.630585 572.744446,492.362549 
	C572.715210,492.434326 572.513794,492.604370 572.141235,492.880524 
z"/>
<path fill="#8E2655" opacity="1.000000" stroke="none" 
	d="
M560.808716,477.150146 
	C560.793823,477.235382 560.597351,477.429260 560.211548,477.719604 
	C560.236816,477.642883 560.438416,477.457123 560.808716,477.150146 
z"/>
<path fill="#8E2655" opacity="1.000000" stroke="none" 
	d="
M605.827820,471.882416 
	C605.727234,471.871399 605.489685,471.657410 605.128845,471.228790 
	C605.222595,471.249298 605.451050,471.471069 605.827820,471.882416 
z"/>
<path fill="#8E2655" opacity="1.000000" stroke="none" 
	d="
M604.804688,470.853821 
	C604.689331,470.867676 604.453247,470.673157 604.122864,470.246033 
	C604.219788,470.258392 604.438232,470.469086 604.804688,470.853821 
z"/>
<path fill="#B12370" opacity="1.000000" stroke="none" 
	d="
M487.162567,369.539459 
	C488.076965,369.255585 488.703644,369.191833 489.645081,369.073944 
	C491.280121,367.998108 492.839844,368.755737 494.541901,368.206238 
	C494.828400,367.970612 494.908783,367.919678 494.941040,367.883423 
	C499.670258,368.382019 504.260406,367.277222 508.893402,366.894165 
	C528.720276,365.254730 548.432983,366.277954 568.134949,368.817535 
	C574.158020,369.593903 579.728333,371.760773 585.540100,373.151306 
	C588.833740,373.939331 588.283447,375.952393 586.589478,377.956451 
	C576.914062,389.403015 566.625916,400.245117 554.656372,409.341827 
	C548.970032,413.663391 543.822205,418.681641 537.557190,422.267273 
	C533.156616,424.785919 525.930603,424.484619 522.200989,421.327118 
	C519.537903,419.072479 521.741699,417.871765 523.269897,416.724670 
	C532.515198,409.785126 540.229797,401.263947 547.949585,392.772003 
	C553.184143,387.013794 552.455750,384.833954 544.857605,382.784546 
	C537.758667,380.869751 530.443298,380.208008 523.143555,379.656342 
	C501.797394,378.043091 480.576996,378.455383 459.746643,384.159271 
	C458.646301,384.460571 457.631073,385.072754 456.326294,385.782501 
	C442.500397,387.751740 430.289825,393.496552 417.994598,398.984833 
	C416.631500,399.593262 415.347198,400.377319 413.989197,400.998749 
	C413.580292,401.185883 413.045807,401.098480 411.910065,401.189789 
	C413.595154,398.217285 416.292511,397.379272 418.565125,396.055267 
	C430.957336,388.835693 444.274902,383.625610 457.804321,378.004944 
	C458.294342,377.691071 458.460724,377.546173 458.893372,377.204834 
	C459.593170,376.984833 460.026611,376.961243 460.783447,376.899048 
	C461.530121,376.494537 462.085297,376.516754 462.779602,376.188171 
	C463.169678,375.987671 463.359863,375.958984 463.833923,375.878815 
	C465.880707,375.328491 467.616241,374.726044 469.694733,374.202942 
	C469.957855,373.979675 469.993347,373.986084 469.985565,373.963989 
	C475.740234,373.073334 481.581116,372.521637 487.162567,369.539459 
z"/>
<path fill="#A9256A" opacity="1.000000" stroke="none" 
	d="
M400.853302,281.472229 
	C400.530853,282.016174 400.334564,282.239105 399.996826,282.633820 
	C393.857330,286.550964 390.276093,292.581757 386.580475,298.157288 
	C371.985504,320.176300 360.686615,343.822266 353.649445,369.376801 
	C351.633453,376.697693 349.835999,384.078766 347.488281,391.353973 
	C346.439484,386.908234 347.626556,382.585571 348.297546,378.365997 
	C353.524200,345.498932 364.362885,314.564026 380.897278,285.649231 
	C386.612640,275.654388 394.255737,267.017395 400.813843,257.201782 
	C402.185516,256.275391 403.163330,255.359024 404.374390,254.205963 
	C404.597626,253.956299 404.879059,253.771362 405.229370,253.481384 
	C405.579712,253.191391 405.869171,252.871262 406.166992,252.567093 
	C406.564331,252.004196 406.663818,251.745468 406.929901,251.105774 
	C407.438202,250.605438 407.786316,250.509369 408.309875,250.224594 
	C408.859131,249.512238 409.239410,249.011963 409.801086,248.254654 
	C410.326111,247.482986 410.910919,247.530457 411.525299,247.138077 
	C411.638092,246.892136 411.754730,246.752350 411.815582,246.684647 
	C413.335693,245.223740 414.717590,243.748352 416.455780,242.178207 
	C419.020111,240.942688 420.958557,239.391998 422.805206,237.169373 
	C423.603058,236.480896 424.404602,236.234207 424.303192,235.019470 
	C424.235870,234.745651 424.465210,234.785294 424.582520,234.768951 
	C426.240936,234.133087 427.782043,233.513565 429.644409,232.714478 
	C431.289520,232.142700 432.479309,231.535797 433.510437,230.183197 
	C434.282715,229.626160 434.895752,229.305908 435.828491,228.859665 
	C436.148163,228.733688 436.529877,228.468826 436.646973,228.268219 
	C436.764069,228.067596 436.834473,227.882217 436.868774,227.789215 
	C437.470825,227.378143 437.980927,226.989212 438.588135,226.223663 
	C438.992249,225.949417 439.203735,225.934372 439.732117,225.892792 
	C440.209320,225.735703 440.369598,225.605164 440.738708,225.245453 
	C441.134308,224.996582 441.321106,224.976898 441.786987,224.918121 
	C442.425934,224.641663 442.819397,224.493088 443.466675,224.201691 
	C443.950012,223.886414 444.213135,223.802826 445.053467,223.450836 
	C446.562836,222.762039 447.494965,222.341614 448.792480,221.800949 
	C449.157867,221.680695 449.561066,221.446045 449.674194,221.242065 
	C450.003387,221.006409 450.219513,220.974762 450.760742,220.902756 
	C453.249756,220.690582 452.177826,222.441177 452.775360,223.609253 
	C453.012817,224.366562 453.027954,224.846634 453.069763,225.686005 
	C453.949280,227.817337 453.234131,229.727722 453.739929,231.910858 
	C453.898224,232.277359 453.832855,232.637573 453.822510,232.820190 
	C454.453979,253.167282 454.241852,273.249176 450.335052,293.190125 
	C449.076599,299.613464 444.613800,302.381531 439.800476,304.811584 
	C436.196381,306.631165 436.229095,303.553619 436.443970,301.042450 
	C437.508057,288.605530 438.676270,276.174500 437.629364,263.665771 
	C437.399689,260.921753 438.672333,257.429779 435.652863,255.931107 
	C432.581665,254.406708 429.622528,256.675232 426.819458,258.032837 
	C426.257416,258.305054 425.872589,258.943268 425.231659,259.696899 
	C425.057251,259.981110 424.817841,260.279327 424.706573,260.434265 
	C424.149475,260.845581 423.703674,261.101898 423.042999,261.500061 
	C421.632538,262.050934 420.385834,262.372009 419.473694,263.777893 
	C419.096954,264.085938 418.859833,264.125549 418.266418,264.220764 
	C417.910126,264.276367 417.541321,264.460175 417.480713,264.657074 
	C412.071960,270.419769 404.862183,274.106995 400.853302,281.472229 
z"/>
<path fill="#A9256A" opacity="1.000000" stroke="none" 
	d="
M345.626831,397.206726 
	C345.762665,396.652893 345.967926,396.256073 346.173157,395.859253 
	C346.381714,396.049011 346.764740,396.236694 346.767029,396.428894 
	C346.774841,397.084320 346.702576,397.805054 345.626831,397.206726 
z"/>
<path fill="#7D244B" opacity="1.000000" stroke="none" 
	d="
M404.337708,254.074310 
	C404.003357,255.330063 402.951050,256.201050 401.280029,256.811035 
	C400.988464,256.909149 401.009796,256.466217 401.023773,256.245117 
	C402.051117,255.413437 403.064453,254.802872 404.337708,254.074310 
z"/>
<path fill="#832952" opacity="1.000000" stroke="none" 
	d="
M469.601624,374.009583 
	C468.448761,375.167694 466.704956,375.693726 464.465698,375.815430 
	C465.644897,374.709106 467.369812,374.158234 469.601624,374.009583 
z"/>
<path fill="#832952" opacity="1.000000" stroke="none" 
	d="
M462.736786,376.105530 
	C462.519562,376.251556 462.059570,376.486755 461.353210,376.791199 
	C461.569214,376.638550 462.031616,376.416626 462.736786,376.105530 
z"/>
<path fill="#B12370" opacity="1.000000" stroke="none" 
	d="
M408.837708,402.970795 
	C408.807190,403.299377 408.305786,403.802551 408.837708,402.970795 
z"/>
<path fill="#B12370" opacity="1.000000" stroke="none" 
	d="
M403.109863,405.990631 
	C403.123810,405.715485 403.597321,405.217621 403.109863,405.990631 
z"/>
<path fill="#B12370" opacity="1.000000" stroke="none" 
	d="
M408.863037,402.837769 
	C408.766602,402.743500 409.070953,402.714417 409.070953,402.714417 
	C409.070953,402.714417 409.200897,402.978210 409.175690,403.050293 
	C409.150482,403.122406 408.959442,402.932068 408.863037,402.837769 
z"/>
<path fill="#832952" opacity="1.000000" stroke="none" 
	d="
M458.981354,377.141052 
	C458.949554,377.218353 458.725006,377.411560 458.307007,377.711975 
	C458.346191,377.640350 458.571198,377.452942 458.981354,377.141052 
z"/>
<path fill="#B12370" opacity="1.000000" stroke="none" 
	d="
M403.091125,406.119324 
	C403.180969,406.207733 402.905426,406.227692 402.905426,406.227692 
	C402.905426,406.227692 402.782990,405.990234 402.802795,405.921722 
	C402.822601,405.853210 403.001312,406.030914 403.091125,406.119324 
z"/>
<path fill="#A62569" opacity="1.000000" stroke="none" 
	d="
M368.473877,403.481018 
	C368.505463,403.466309 368.442291,403.495758 368.473877,403.481018 
z"/>
<path fill="#7D244B" opacity="1.000000" stroke="none" 
	d="
M453.914795,231.862854 
	C453.625702,230.461517 453.353180,228.645676 453.088562,226.437561 
	C453.859283,227.771439 454.013367,229.591644 453.914795,231.862854 
z"/>
<path fill="#7D244B" opacity="1.000000" stroke="none" 
	d="
M452.976685,223.616516 
	C452.466553,223.048386 451.935425,222.210312 451.245056,221.117325 
	C452.590637,221.026947 452.826904,222.146286 452.976685,223.616516 
z"/>
<path fill="#7D244B" opacity="1.000000" stroke="none" 
	d="
M438.506775,225.988953 
	C438.325439,226.486267 437.870087,227.008041 437.158936,227.613022 
	C436.953064,227.350006 437.003052,227.003799 437.094360,226.397461 
	C437.501404,226.096008 437.867126,226.054718 438.506775,225.988953 
z"/>
<path fill="#7D244B" opacity="1.000000" stroke="none" 
	d="
M443.479492,224.071487 
	C443.295654,224.223587 442.904358,224.477173 442.289551,224.804901 
	C442.468018,224.643692 442.870056,224.408325 443.479492,224.071487 
z"/>
<path fill="#7D244B" opacity="1.000000" stroke="none" 
	d="
M449.678528,221.142471 
	C449.672455,221.205963 449.540375,221.358994 449.274475,221.588928 
	C449.289612,221.530823 449.426910,221.386215 449.678528,221.142471 
z"/>
<path fill="#7D244B" opacity="1.000000" stroke="none" 
	d="
M440.793030,225.153519 
	C440.796021,225.252716 440.611572,225.459808 440.221619,225.751907 
	C440.238953,225.667664 440.435425,225.475830 440.793030,225.153519 
z"/>
<path fill="#7D244B" opacity="1.000000" stroke="none" 
	d="
M445.565979,223.228912 
	C445.630676,223.182449 445.393005,223.398575 445.332672,223.444687 
	C445.272339,223.490799 445.501312,223.275391 445.565979,223.228912 
z"/>
<path fill="#7D244B" opacity="1.000000" stroke="none" 
	d="
M417.503784,264.759491 
	C417.484314,264.691406 417.580109,264.550293 417.808777,264.353516 
	C417.806183,264.408905 417.698608,264.538452 417.503784,264.759491 
z"/>
<path fill="#862954" opacity="1.000000" stroke="none" 
	d="
M555.844360,444.469482 
	C554.117188,444.637817 552.507446,443.990723 551.005493,442.354736 
	C551.582825,442.092896 552.374878,442.086365 553.560303,442.088562 
	C554.537903,442.809875 555.122192,443.522491 555.844360,444.469482 
z"/>
<path fill="#862954" opacity="1.000000" stroke="none" 
	d="
M562.765930,447.513733 
	C562.114868,447.294861 561.274658,446.865845 560.243652,446.218994 
	C560.894226,446.435272 561.735474,446.869415 562.765930,447.513733 
z"/>
<path fill="#862954" opacity="1.000000" stroke="none" 
	d="
M559.686646,445.823273 
	C559.171082,445.745483 558.380188,445.532166 557.324463,445.161621 
	C557.843567,445.232208 558.627441,445.459961 559.686646,445.823273 
z"/>
<path fill="#7D244B" opacity="1.000000" stroke="none" 
	d="
M416.366943,241.922470 
	C416.079010,244.165604 414.200104,245.207932 412.167450,246.497375 
	C411.908569,246.261475 411.940704,245.906021 411.996948,245.281219 
	C412.244202,244.792816 412.465820,244.572250 412.849854,244.182358 
	C413.245087,243.801819 413.472076,243.584534 413.859802,243.194504 
	C414.255432,242.820236 414.483521,242.611450 414.878540,242.242065 
	C415.400452,242.041641 415.752960,241.999115 416.366943,241.922470 
z"/>
<path fill="#7D244B" opacity="1.000000" stroke="none" 
	d="
M424.083374,235.017700 
	C424.339508,235.555923 424.141144,236.240387 423.221863,236.809860 
	C423.326813,236.371979 423.628845,235.830856 424.083374,235.017700 
z"/>
<path fill="#862954" opacity="1.000000" stroke="none" 
	d="
M549.025635,441.435547 
	C547.624146,441.239960 546.201111,440.778473 544.535278,440.123322 
	C545.570068,439.973572 546.847595,440.017517 548.511353,440.083313 
	C548.933044,440.459961 548.968506,440.814819 549.025635,441.435547 
z"/>
<path fill="#862954" opacity="1.000000" stroke="none" 
	d="
M543.582275,439.665833 
	C543.099731,439.606567 542.355957,439.438843 541.354370,439.139038 
	C541.838013,439.190430 542.579468,439.373901 543.582275,439.665833 
z"/>
<path fill="#7D244B" opacity="1.000000" stroke="none" 
	d="
M408.301880,250.091278 
	C408.142090,250.210480 407.805389,250.408463 407.282593,250.665649 
	C407.439301,250.539902 407.782104,250.354980 408.301880,250.091278 
z"/>
<path fill="#7D244B" opacity="1.000000" stroke="none" 
	d="
M411.370483,246.914368 
	C411.243225,247.196533 410.848358,247.500931 410.217987,247.901474 
	C409.982483,247.997620 410.000031,247.510605 410.012360,247.267502 
	C410.384064,246.995132 410.743469,246.965866 411.370483,246.914368 
z"/>
<path fill="#7D244B" opacity="1.000000" stroke="none" 
	d="
M405.506592,253.255585 
	C405.579712,253.191391 405.314178,253.480225 405.242188,253.541183 
	C405.170166,253.602142 405.433502,253.319778 405.506592,253.255585 
z"/>
<path fill="#7D244B" opacity="1.000000" stroke="none" 
	d="
M406.412933,252.310715 
	C406.464813,252.262924 406.283325,252.483765 406.231384,252.527527 
	C406.179474,252.571274 406.361053,252.358505 406.412933,252.310715 
z"/>
<path fill="#862954" opacity="1.000000" stroke="none" 
	d="
M520.680481,432.686707 
	C519.532410,432.624542 518.145569,432.395386 516.450439,432.005432 
	C517.707581,431.227814 519.120239,431.583527 520.680481,432.686707 
z"/>
<path fill="#832952" opacity="1.000000" stroke="none" 
	d="
M494.473663,367.986786 
	C493.450958,368.311859 492.073547,368.653107 490.327942,369.007080 
	C491.346191,368.680878 492.732544,368.341919 494.473663,367.986786 
z"/>
<path fill="#7D244B" opacity="1.000000" stroke="none" 
	d="
M436.658234,228.176178 
	C436.651428,228.238266 436.521881,228.394913 436.261780,228.635620 
	C436.277649,228.579300 436.412415,228.429657 436.658234,228.176178 
z"/>
</svg>